<?xml version="1.0" encoding="UTF-8"?>
<svg xmlns="http://www.w3.org/2000/svg" xmlns:xlink="http://www.w3.org/1999/xlink" width="482pt" height="417pt" viewBox="0 0 482 417">
<defs>
<g>
<g id="glyph-0-0">
<path d="M 0.296875 -2.546875 C 0.296875 -3.148438 0.359375 -3.640625 0.484375 -4.015625 C 0.609375 -4.390625 0.796875 -4.675781 1.046875 -4.875 C 1.296875 -5.070312 1.609375 -5.171875 1.984375 -5.171875 C 2.253906 -5.171875 2.492188 -5.113281 2.703125 -5 C 2.910156 -4.894531 3.082031 -4.738281 3.21875 -4.53125 C 3.351562 -4.320312 3.457031 -4.066406 3.53125 -3.765625 C 3.613281 -3.460938 3.65625 -3.054688 3.65625 -2.546875 C 3.65625 -1.941406 3.59375 -1.453125 3.46875 -1.078125 C 3.34375 -0.703125 3.15625 -0.410156 2.90625 -0.203125 C 2.664062 -0.00390625 2.359375 0.09375 1.984375 0.09375 C 1.484375 0.09375 1.09375 -0.0859375 0.8125 -0.453125 C 0.46875 -0.878906 0.296875 -1.578125 0.296875 -2.546875 Z M 0.953125 -2.546875 C 0.953125 -1.691406 1.050781 -1.125 1.25 -0.84375 C 1.445312 -0.570312 1.691406 -0.4375 1.984375 -0.4375 C 2.273438 -0.4375 2.519531 -0.578125 2.71875 -0.859375 C 2.914062 -1.140625 3.015625 -1.703125 3.015625 -2.546875 C 3.015625 -3.390625 2.914062 -3.953125 2.71875 -4.234375 C 2.519531 -4.515625 2.269531 -4.65625 1.96875 -4.65625 C 1.675781 -4.65625 1.445312 -4.53125 1.28125 -4.28125 C 1.0625 -3.96875 0.953125 -3.390625 0.953125 -2.546875 Z M 0.953125 -2.546875 "/>
</g>
<g id="glyph-0-1">
<path d="M 0.421875 -3.921875 C 0.421875 -4.285156 0.507812 -4.597656 0.6875 -4.859375 C 0.875 -5.117188 1.144531 -5.25 1.5 -5.25 C 1.820312 -5.25 2.085938 -5.128906 2.296875 -4.890625 C 2.515625 -4.660156 2.625 -4.320312 2.625 -3.875 C 2.625 -3.4375 2.515625 -3.097656 2.296875 -2.859375 C 2.085938 -2.628906 1.828125 -2.515625 1.515625 -2.515625 C 1.203125 -2.515625 0.941406 -2.628906 0.734375 -2.859375 C 0.523438 -3.097656 0.421875 -3.453125 0.421875 -3.921875 Z M 1.515625 -4.8125 C 1.359375 -4.8125 1.226562 -4.742188 1.125 -4.609375 C 1.019531 -4.472656 0.96875 -4.222656 0.96875 -3.859375 C 0.96875 -3.523438 1.019531 -3.289062 1.125 -3.15625 C 1.226562 -3.019531 1.359375 -2.953125 1.515625 -2.953125 C 1.679688 -2.953125 1.816406 -3.019531 1.921875 -3.15625 C 2.023438 -3.289062 2.078125 -3.539062 2.078125 -3.90625 C 2.078125 -4.238281 2.019531 -4.472656 1.90625 -4.609375 C 1.800781 -4.742188 1.671875 -4.8125 1.515625 -4.8125 Z M 1.515625 0.1875 L 4.34375 -5.25 L 4.859375 -5.25 L 2.046875 0.1875 Z M 3.75 -1.203125 C 3.75 -1.578125 3.84375 -1.890625 4.03125 -2.140625 C 4.21875 -2.398438 4.488281 -2.53125 4.84375 -2.53125 C 5.164062 -2.53125 5.429688 -2.414062 5.640625 -2.1875 C 5.859375 -1.957031 5.96875 -1.617188 5.96875 -1.171875 C 5.96875 -0.734375 5.859375 -0.394531 5.640625 -0.15625 C 5.421875 0.0703125 5.15625 0.1875 4.84375 0.1875 C 4.53125 0.1875 4.269531 0.0703125 4.0625 -0.15625 C 3.851562 -0.394531 3.75 -0.742188 3.75 -1.203125 Z M 4.859375 -2.09375 C 4.703125 -2.09375 4.570312 -2.023438 4.46875 -1.890625 C 4.363281 -1.753906 4.3125 -1.503906 4.3125 -1.140625 C 4.3125 -0.816406 4.363281 -0.585938 4.46875 -0.453125 C 4.570312 -0.316406 4.703125 -0.25 4.859375 -0.25 C 5.015625 -0.25 5.144531 -0.316406 5.25 -0.453125 C 5.351562 -0.585938 5.40625 -0.835938 5.40625 -1.203125 C 5.40625 -1.523438 5.351562 -1.753906 5.25 -1.890625 C 5.144531 -2.023438 5.015625 -2.09375 4.859375 -2.09375 Z M 4.859375 -2.09375 "/>
</g>
<g id="glyph-0-2">
<path d="M 3.625 -0.609375 L 3.625 0 L 0.21875 0 C 0.21875 -0.15625 0.242188 -0.300781 0.296875 -0.4375 C 0.378906 -0.664062 0.515625 -0.894531 0.703125 -1.125 C 0.898438 -1.351562 1.175781 -1.613281 1.53125 -1.90625 C 2.09375 -2.363281 2.472656 -2.726562 2.671875 -3 C 2.867188 -3.269531 2.96875 -3.523438 2.96875 -3.765625 C 2.96875 -4.015625 2.878906 -4.222656 2.703125 -4.390625 C 2.523438 -4.566406 2.289062 -4.65625 2 -4.65625 C 1.695312 -4.65625 1.453125 -4.5625 1.265625 -4.375 C 1.078125 -4.195312 0.984375 -3.945312 0.984375 -3.625 L 0.34375 -3.6875 C 0.382812 -4.164062 0.550781 -4.53125 0.84375 -4.78125 C 1.132812 -5.039062 1.523438 -5.171875 2.015625 -5.171875 C 2.503906 -5.171875 2.894531 -5.035156 3.1875 -4.765625 C 3.476562 -4.492188 3.625 -4.15625 3.625 -3.75 C 3.625 -3.539062 3.578125 -3.335938 3.484375 -3.140625 C 3.398438 -2.941406 3.257812 -2.726562 3.0625 -2.5 C 2.875 -2.28125 2.550781 -1.976562 2.09375 -1.59375 C 1.71875 -1.28125 1.472656 -1.066406 1.359375 -0.953125 C 1.253906 -0.835938 1.164062 -0.722656 1.09375 -0.609375 Z M 3.625 -0.609375 "/>
</g>
<g id="glyph-0-3">
<path d="M 0.296875 -1.34375 L 0.96875 -1.40625 C 1.007812 -1.082031 1.117188 -0.835938 1.296875 -0.671875 C 1.484375 -0.515625 1.703125 -0.4375 1.953125 -0.4375 C 2.253906 -0.4375 2.507812 -0.550781 2.71875 -0.78125 C 2.9375 -1.007812 3.046875 -1.3125 3.046875 -1.6875 C 3.046875 -2.050781 2.941406 -2.335938 2.734375 -2.546875 C 2.535156 -2.753906 2.269531 -2.859375 1.9375 -2.859375 C 1.738281 -2.859375 1.554688 -2.8125 1.390625 -2.71875 C 1.222656 -2.625 1.09375 -2.503906 1 -2.359375 L 0.40625 -2.4375 L 0.90625 -5.078125 L 3.46875 -5.078125 L 3.46875 -4.484375 L 1.421875 -4.484375 L 1.140625 -3.09375 C 1.453125 -3.3125 1.773438 -3.421875 2.109375 -3.421875 C 2.566406 -3.421875 2.945312 -3.265625 3.25 -2.953125 C 3.5625 -2.640625 3.71875 -2.238281 3.71875 -1.75 C 3.71875 -1.28125 3.582031 -0.875 3.3125 -0.53125 C 2.976562 -0.113281 2.523438 0.09375 1.953125 0.09375 C 1.484375 0.09375 1.097656 -0.0351562 0.796875 -0.296875 C 0.503906 -0.566406 0.335938 -0.914062 0.296875 -1.34375 Z M 0.296875 -1.34375 "/>
</g>
<g id="glyph-0-4">
<path d="M 0.34375 -4.484375 L 0.34375 -5.09375 L 3.671875 -5.09375 L 3.671875 -4.59375 C 3.347656 -4.25 3.023438 -3.785156 2.703125 -3.203125 C 2.378906 -2.617188 2.128906 -2.023438 1.953125 -1.421875 C 1.828125 -0.984375 1.75 -0.507812 1.71875 0 L 1.0625 0 C 1.070312 -0.40625 1.148438 -0.894531 1.296875 -1.46875 C 1.453125 -2.039062 1.671875 -2.59375 1.953125 -3.125 C 2.242188 -3.664062 2.546875 -4.117188 2.859375 -4.484375 Z M 0.34375 -4.484375 "/>
</g>
<g id="glyph-0-5">
<path d="M 2.6875 0 L 2.046875 0 L 2.046875 -4.03125 C 1.898438 -3.882812 1.703125 -3.738281 1.453125 -3.59375 C 1.203125 -3.445312 0.976562 -3.335938 0.78125 -3.265625 L 0.78125 -3.890625 C 1.132812 -4.046875 1.441406 -4.242188 1.703125 -4.484375 C 1.972656 -4.722656 2.164062 -4.953125 2.28125 -5.171875 L 2.6875 -5.171875 Z M 2.6875 0 "/>
</g>
<g id="glyph-1-0">
<path d="M 1.71875 -4.28125 L 2.328125 -4.640625 C 2.617188 -4.140625 2.738281 -3.65625 2.6875 -3.1875 C 2.632812 -2.71875 2.414062 -2.289062 2.03125 -1.90625 C 1.632812 -1.507812 1.234375 -1.269531 0.828125 -1.1875 C 0.421875 -1.101562 0.00390625 -1.144531 -0.421875 -1.3125 C -0.859375 -1.488281 -1.25 -1.75 -1.59375 -2.09375 C -1.976562 -2.476562 -2.238281 -2.882812 -2.375 -3.3125 C -2.507812 -3.738281 -2.519531 -4.160156 -2.40625 -4.578125 C -2.289062 -4.992188 -2.066406 -5.367188 -1.734375 -5.703125 C -1.378906 -6.054688 -0.984375 -6.265625 -0.546875 -6.328125 C -0.109375 -6.390625 0.320312 -6.300781 0.75 -6.0625 L 0.40625 -5.46875 C 0.0625 -5.644531 -0.25 -5.710938 -0.53125 -5.671875 C -0.820312 -5.640625 -1.085938 -5.503906 -1.328125 -5.265625 C -1.609375 -4.984375 -1.773438 -4.679688 -1.828125 -4.359375 C -1.878906 -4.035156 -1.828125 -3.71875 -1.671875 -3.40625 C -1.523438 -3.101562 -1.335938 -2.835938 -1.109375 -2.609375 C -0.796875 -2.296875 -0.476562 -2.070312 -0.15625 -1.9375 C 0.164062 -1.800781 0.476562 -1.769531 0.78125 -1.84375 C 1.082031 -1.914062 1.34375 -2.0625 1.5625 -2.28125 C 1.832031 -2.550781 1.984375 -2.851562 2.015625 -3.1875 C 2.054688 -3.53125 1.957031 -3.894531 1.71875 -4.28125 Z M 1.71875 -4.28125 "/>
</g>
<g id="glyph-1-1">
<path d="M 0.921875 -1.703125 L 1.375 -1.375 C 1.269531 -1.226562 1.164062 -1.101562 1.0625 -1 C 0.90625 -0.84375 0.753906 -0.742188 0.609375 -0.703125 C 0.472656 -0.671875 0.34375 -0.675781 0.21875 -0.71875 C 0.101562 -0.769531 -0.0820312 -0.925781 -0.34375 -1.1875 L -1.875 -2.71875 L -2.203125 -2.390625 L -2.546875 -2.734375 L -2.21875 -3.0625 L -2.875 -3.71875 L -2.703125 -4.421875 L -1.78125 -3.5 L -1.328125 -3.953125 L -0.984375 -3.609375 L -1.4375 -3.15625 L 0.109375 -1.609375 C 0.242188 -1.472656 0.332031 -1.394531 0.375 -1.375 C 0.425781 -1.363281 0.476562 -1.363281 0.53125 -1.375 C 0.59375 -1.394531 0.65625 -1.4375 0.71875 -1.5 C 0.769531 -1.550781 0.835938 -1.617188 0.921875 -1.703125 Z M 0.921875 -1.703125 "/>
</g>
<g id="glyph-1-2">
<path d="M 0.328125 -0.328125 L -2.3125 -2.96875 L -1.90625 -3.375 L -1.515625 -2.984375 C -1.585938 -3.265625 -1.609375 -3.476562 -1.578125 -3.625 C -1.554688 -3.78125 -1.5 -3.90625 -1.40625 -4 C -1.25 -4.15625 -1.039062 -4.257812 -0.78125 -4.3125 L -0.53125 -3.75 C -0.707031 -3.71875 -0.851562 -3.644531 -0.96875 -3.53125 C -1.0625 -3.4375 -1.113281 -3.316406 -1.125 -3.171875 C -1.144531 -3.035156 -1.125 -2.894531 -1.0625 -2.75 C -0.957031 -2.539062 -0.804688 -2.335938 -0.609375 -2.140625 L 0.765625 -0.765625 Z M 0.328125 -0.328125 "/>
</g>
<g id="glyph-1-3">
<path d="M 0.328125 -0.328125 L -3.3125 -3.96875 L -2.875 -4.40625 L 0.765625 -0.765625 Z M 0.328125 -0.328125 "/>
</g>
<g id="glyph-1-4">
<path d="M 0.40625 -0.40625 L -3.234375 -4.046875 L -2.75 -4.53125 L -1.25 -3.03125 L 0.640625 -4.921875 L -0.859375 -6.421875 L -0.375 -6.90625 L 3.265625 -3.265625 L 2.78125 -2.78125 L 1.0625 -4.5 L -0.828125 -2.609375 L 0.890625 -0.890625 Z M 0.40625 -0.40625 "/>
</g>
<g id="glyph-1-5">
<path d="M 1.34375 0.6875 L 0.859375 0.328125 C 0.984375 0.265625 1.082031 0.195312 1.15625 0.125 C 1.257812 0.0195312 1.320312 -0.0703125 1.34375 -0.15625 C 1.375 -0.25 1.378906 -0.347656 1.359375 -0.453125 C 1.335938 -0.535156 1.269531 -0.695312 1.15625 -0.9375 C 1.144531 -0.96875 1.117188 -1.015625 1.078125 -1.078125 L -2.5625 -2.71875 L -2.078125 -3.203125 L 0 -2.21875 C 0.269531 -2.09375 0.535156 -1.953125 0.796875 -1.796875 C 0.640625 -2.054688 0.5 -2.320312 0.375 -2.59375 L -0.578125 -4.703125 L -0.140625 -5.140625 L 1.546875 -1.453125 C 1.722656 -1.066406 1.835938 -0.785156 1.890625 -0.609375 C 1.953125 -0.378906 1.96875 -0.175781 1.9375 0 C 1.90625 0.175781 1.820312 0.332031 1.6875 0.46875 C 1.59375 0.5625 1.476562 0.632812 1.34375 0.6875 Z M 1.34375 0.6875 "/>
</g>
<g id="glyph-1-6">
<path d="M 2.046875 -2.046875 L 1.71875 -2.375 C 1.8125 -1.945312 1.695312 -1.570312 1.375 -1.25 C 1.164062 -1.039062 0.914062 -0.90625 0.625 -0.84375 C 0.332031 -0.78125 0.03125 -0.804688 -0.28125 -0.921875 C -0.59375 -1.035156 -0.878906 -1.222656 -1.140625 -1.484375 C -1.410156 -1.753906 -1.609375 -2.039062 -1.734375 -2.34375 C -1.859375 -2.644531 -1.890625 -2.941406 -1.828125 -3.234375 C -1.765625 -3.523438 -1.625 -3.78125 -1.40625 -4 C -1.25 -4.15625 -1.070312 -4.257812 -0.875 -4.3125 C -0.6875 -4.375 -0.503906 -4.390625 -0.328125 -4.359375 L -1.625 -5.65625 L -1.171875 -6.109375 L 2.46875 -2.46875 Z M -0.6875 -1.9375 C -0.351562 -1.601562 -0.03125 -1.425781 0.28125 -1.40625 C 0.59375 -1.382812 0.84375 -1.46875 1.03125 -1.65625 C 1.226562 -1.851562 1.316406 -2.097656 1.296875 -2.390625 C 1.285156 -2.691406 1.113281 -3.007812 0.78125 -3.34375 C 0.414062 -3.707031 0.0820312 -3.898438 -0.21875 -3.921875 C -0.53125 -3.953125 -0.785156 -3.867188 -0.984375 -3.671875 C -1.191406 -3.460938 -1.28125 -3.207031 -1.25 -2.90625 C -1.226562 -2.613281 -1.039062 -2.289062 -0.6875 -1.9375 Z M -0.6875 -1.9375 "/>
</g>
<g id="glyph-1-7">
<path d="M -1.15625 -1.5 C -1.644531 -1.988281 -1.867188 -2.484375 -1.828125 -2.984375 C -1.796875 -3.410156 -1.617188 -3.785156 -1.296875 -4.109375 C -0.929688 -4.472656 -0.515625 -4.648438 -0.046875 -4.640625 C 0.421875 -4.628906 0.863281 -4.414062 1.28125 -4 C 1.625 -3.65625 1.84375 -3.335938 1.9375 -3.046875 C 2.03125 -2.753906 2.03125 -2.453125 1.9375 -2.140625 C 1.851562 -1.835938 1.695312 -1.570312 1.46875 -1.34375 C 1.09375 -0.96875 0.671875 -0.785156 0.203125 -0.796875 C -0.253906 -0.816406 -0.707031 -1.050781 -1.15625 -1.5 Z M -0.703125 -1.953125 C -0.359375 -1.609375 -0.03125 -1.425781 0.28125 -1.40625 C 0.601562 -1.394531 0.875 -1.5 1.09375 -1.71875 C 1.320312 -1.945312 1.425781 -2.21875 1.40625 -2.53125 C 1.382812 -2.84375 1.195312 -3.175781 0.84375 -3.53125 C 0.519531 -3.851562 0.203125 -4.019531 -0.109375 -4.03125 C -0.429688 -4.050781 -0.703125 -3.953125 -0.921875 -3.734375 C -1.140625 -3.515625 -1.238281 -3.242188 -1.21875 -2.921875 C -1.207031 -2.609375 -1.035156 -2.285156 -0.703125 -1.953125 Z M -0.703125 -1.953125 "/>
</g>
<g id="glyph-1-8">
<path d="M -0.625 -0.9375 L -0.265625 -1.453125 C -0.0546875 -1.304688 0.144531 -1.238281 0.34375 -1.25 C 0.550781 -1.269531 0.757812 -1.382812 0.96875 -1.59375 C 1.175781 -1.800781 1.285156 -1.992188 1.296875 -2.171875 C 1.316406 -2.359375 1.269531 -2.507812 1.15625 -2.625 C 1.050781 -2.726562 0.925781 -2.757812 0.78125 -2.71875 C 0.6875 -2.707031 0.488281 -2.601562 0.1875 -2.40625 C -0.226562 -2.175781 -0.523438 -2.023438 -0.703125 -1.953125 C -0.890625 -1.890625 -1.070312 -1.878906 -1.25 -1.921875 C -1.425781 -1.960938 -1.578125 -2.046875 -1.703125 -2.171875 C -1.828125 -2.296875 -1.910156 -2.429688 -1.953125 -2.578125 C -2.003906 -2.734375 -2.015625 -2.890625 -1.984375 -3.046875 C -1.960938 -3.171875 -1.910156 -3.3125 -1.828125 -3.46875 C -1.742188 -3.625 -1.632812 -3.769531 -1.5 -3.90625 C -1.289062 -4.113281 -1.078125 -4.265625 -0.859375 -4.359375 C -0.640625 -4.453125 -0.441406 -4.484375 -0.265625 -4.453125 C -0.0976562 -4.429688 0.0859375 -4.347656 0.296875 -4.203125 L -0.09375 -3.71875 C -0.238281 -3.820312 -0.394531 -3.863281 -0.5625 -3.84375 C -0.738281 -3.832031 -0.914062 -3.738281 -1.09375 -3.5625 C -1.300781 -3.351562 -1.414062 -3.171875 -1.4375 -3.015625 C -1.457031 -2.859375 -1.421875 -2.734375 -1.328125 -2.640625 C -1.273438 -2.585938 -1.203125 -2.554688 -1.109375 -2.546875 C -1.035156 -2.535156 -0.941406 -2.554688 -0.828125 -2.609375 C -0.753906 -2.640625 -0.585938 -2.734375 -0.328125 -2.890625 C 0.078125 -3.109375 0.367188 -3.253906 0.546875 -3.328125 C 0.722656 -3.398438 0.898438 -3.421875 1.078125 -3.390625 C 1.265625 -3.367188 1.4375 -3.28125 1.59375 -3.125 C 1.738281 -2.976562 1.832031 -2.796875 1.875 -2.578125 C 1.914062 -2.359375 1.890625 -2.128906 1.796875 -1.890625 C 1.710938 -1.660156 1.5625 -1.4375 1.34375 -1.21875 C 1 -0.875 0.664062 -0.679688 0.34375 -0.640625 C 0.03125 -0.609375 -0.289062 -0.707031 -0.625 -0.9375 Z M -0.625 -0.9375 "/>
</g>
<g id="glyph-1-9">
<path d="M 1.734375 -2.390625 C 1.710938 -2.078125 1.648438 -1.8125 1.546875 -1.59375 C 1.453125 -1.382812 1.316406 -1.191406 1.140625 -1.015625 C 0.859375 -0.734375 0.566406 -0.582031 0.265625 -0.5625 C -0.0234375 -0.550781 -0.285156 -0.660156 -0.515625 -0.890625 C -0.640625 -1.015625 -0.726562 -1.160156 -0.78125 -1.328125 C -0.832031 -1.492188 -0.835938 -1.65625 -0.796875 -1.8125 C -0.765625 -1.976562 -0.707031 -2.132812 -0.625 -2.28125 C -0.550781 -2.394531 -0.445312 -2.550781 -0.3125 -2.75 C 0.0078125 -3.15625 0.226562 -3.46875 0.34375 -3.6875 C 0.28125 -3.75 0.238281 -3.789062 0.21875 -3.8125 C 0.0390625 -3.988281 -0.117188 -4.078125 -0.265625 -4.078125 C -0.492188 -4.054688 -0.71875 -3.9375 -0.9375 -3.71875 C -1.144531 -3.507812 -1.265625 -3.316406 -1.296875 -3.140625 C -1.328125 -2.960938 -1.269531 -2.757812 -1.125 -2.53125 L -1.625 -2.15625 C -1.769531 -2.382812 -1.851562 -2.597656 -1.875 -2.796875 C -1.90625 -3.003906 -1.863281 -3.222656 -1.75 -3.453125 C -1.644531 -3.691406 -1.476562 -3.925781 -1.25 -4.15625 C -1.019531 -4.382812 -0.8125 -4.539062 -0.625 -4.625 C -0.4375 -4.707031 -0.265625 -4.738281 -0.109375 -4.71875 C 0.0351562 -4.707031 0.179688 -4.660156 0.328125 -4.578125 C 0.421875 -4.503906 0.566406 -4.367188 0.765625 -4.171875 L 1.359375 -3.578125 C 1.773438 -3.160156 2.046875 -2.90625 2.171875 -2.8125 C 2.304688 -2.726562 2.457031 -2.664062 2.625 -2.625 L 2.140625 -2.140625 C 2.003906 -2.191406 1.867188 -2.273438 1.734375 -2.390625 Z M 0.6875 -3.34375 C 0.601562 -3.113281 0.421875 -2.816406 0.140625 -2.453125 C -0.015625 -2.234375 -0.113281 -2.066406 -0.15625 -1.953125 C -0.207031 -1.847656 -0.222656 -1.742188 -0.203125 -1.640625 C -0.179688 -1.535156 -0.128906 -1.441406 -0.046875 -1.359375 C 0.0664062 -1.242188 0.207031 -1.1875 0.375 -1.1875 C 0.550781 -1.195312 0.726562 -1.289062 0.90625 -1.46875 C 1.082031 -1.644531 1.195312 -1.835938 1.25 -2.046875 C 1.3125 -2.265625 1.300781 -2.46875 1.21875 -2.65625 C 1.175781 -2.800781 1.054688 -2.972656 0.859375 -3.171875 Z M 0.6875 -3.34375 "/>
</g>
<g id="glyph-1-10">
<path d="M 1.296875 -2.984375 L 1.8125 -3.40625 C 2.007812 -3.0625 2.082031 -2.710938 2.03125 -2.359375 C 1.988281 -2.015625 1.816406 -1.691406 1.515625 -1.390625 C 1.117188 -0.992188 0.6875 -0.800781 0.21875 -0.8125 C -0.238281 -0.832031 -0.679688 -1.054688 -1.109375 -1.484375 C -1.554688 -1.929688 -1.785156 -2.390625 -1.796875 -2.859375 C -1.816406 -3.335938 -1.644531 -3.757812 -1.28125 -4.125 C -0.9375 -4.46875 -0.53125 -4.632812 -0.0625 -4.625 C 0.40625 -4.613281 0.859375 -4.390625 1.296875 -3.953125 C 1.328125 -3.921875 1.367188 -3.878906 1.421875 -3.828125 L -0.546875 -1.859375 C -0.242188 -1.578125 0.0507812 -1.429688 0.34375 -1.421875 C 0.644531 -1.421875 0.910156 -1.535156 1.140625 -1.765625 C 1.296875 -1.921875 1.390625 -2.097656 1.421875 -2.296875 C 1.460938 -2.503906 1.421875 -2.734375 1.296875 -2.984375 Z M -0.890625 -2.234375 L 0.578125 -3.703125 C 0.335938 -3.921875 0.113281 -4.039062 -0.09375 -4.0625 C -0.40625 -4.082031 -0.675781 -3.976562 -0.90625 -3.75 C -1.113281 -3.539062 -1.21875 -3.300781 -1.21875 -3.03125 C -1.21875 -2.757812 -1.109375 -2.492188 -0.890625 -2.234375 Z M -0.890625 -2.234375 "/>
</g>
<g id="glyph-1-11">
<path d="M 0.421875 -0.421875 L -3.21875 -4.0625 L -0.765625 -6.515625 L -0.34375 -6.09375 L -2.328125 -4.109375 L -1.203125 -2.984375 L 0.515625 -4.703125 L 0.953125 -4.265625 L -0.765625 -2.546875 L 0.890625 -0.890625 Z M 0.421875 -0.421875 "/>
</g>
<g id="glyph-2-0">
<path d="M 0 -0.671875 L -6.4375 -0.671875 L -6.4375 -1.953125 L -1.875 -3.46875 C -1.457031 -3.613281 -1.140625 -3.71875 -0.921875 -3.78125 C -1.160156 -3.851562 -1.503906 -3.96875 -1.953125 -4.125 L -6.4375 -5.671875 L -6.4375 -6.8125 L 0 -6.8125 L 0 -6 L -5.390625 -6 L 0 -4.125 L 0 -3.359375 L -5.484375 -1.484375 L 0 -1.484375 Z M 0 -0.671875 "/>
</g>
<g id="glyph-2-1">
<path d="M -1.5 -3.78125 L -1.40625 -4.609375 C -0.925781 -4.472656 -0.550781 -4.226562 -0.28125 -3.875 C -0.0195312 -3.53125 0.109375 -3.085938 0.109375 -2.546875 C 0.109375 -1.867188 -0.0976562 -1.328125 -0.515625 -0.921875 C -0.941406 -0.523438 -1.535156 -0.328125 -2.296875 -0.328125 C -3.078125 -0.328125 -3.679688 -0.53125 -4.109375 -0.9375 C -4.546875 -1.34375 -4.765625 -1.867188 -4.765625 -2.515625 C -4.765625 -3.140625 -4.550781 -3.644531 -4.125 -4.03125 C -3.707031 -4.425781 -3.113281 -4.625 -2.34375 -4.625 C -2.289062 -4.625 -2.21875 -4.625 -2.125 -4.625 L -2.125 -1.140625 C -1.613281 -1.171875 -1.222656 -1.316406 -0.953125 -1.578125 C -0.679688 -1.835938 -0.546875 -2.164062 -0.546875 -2.5625 C -0.546875 -2.851562 -0.617188 -3.097656 -0.765625 -3.296875 C -0.921875 -3.503906 -1.164062 -3.664062 -1.5 -3.78125 Z M -2.78125 -1.1875 L -2.78125 -3.796875 C -3.175781 -3.765625 -3.472656 -3.664062 -3.671875 -3.5 C -3.972656 -3.25 -4.125 -2.921875 -4.125 -2.515625 C -4.125 -2.148438 -4 -1.84375 -3.75 -1.59375 C -3.507812 -1.351562 -3.1875 -1.21875 -2.78125 -1.1875 Z M -2.78125 -1.1875 "/>
</g>
<g id="glyph-2-2">
<path d="M -0.578125 -3.640625 C -0.328125 -3.347656 -0.148438 -3.066406 -0.046875 -2.796875 C 0.0546875 -2.523438 0.109375 -2.234375 0.109375 -1.921875 C 0.109375 -1.410156 -0.015625 -1.015625 -0.265625 -0.734375 C -0.515625 -0.460938 -0.835938 -0.328125 -1.234375 -0.328125 C -1.460938 -0.328125 -1.671875 -0.378906 -1.859375 -0.484375 C -2.046875 -0.585938 -2.195312 -0.722656 -2.3125 -0.890625 C -2.425781 -1.054688 -2.515625 -1.242188 -2.578125 -1.453125 C -2.609375 -1.609375 -2.644531 -1.84375 -2.6875 -2.15625 C -2.757812 -2.800781 -2.851562 -3.273438 -2.96875 -3.578125 C -3.070312 -3.578125 -3.140625 -3.578125 -3.171875 -3.578125 C -3.492188 -3.578125 -3.71875 -3.503906 -3.84375 -3.359375 C -4.03125 -3.148438 -4.125 -2.847656 -4.125 -2.453125 C -4.125 -2.078125 -4.054688 -1.800781 -3.921875 -1.625 C -3.796875 -1.445312 -3.566406 -1.316406 -3.234375 -1.234375 L -3.328125 -0.46875 C -3.660156 -0.53125 -3.925781 -0.640625 -4.125 -0.796875 C -4.332031 -0.960938 -4.488281 -1.195312 -4.59375 -1.5 C -4.707031 -1.8125 -4.765625 -2.164062 -4.765625 -2.5625 C -4.765625 -2.96875 -4.71875 -3.289062 -4.625 -3.53125 C -4.53125 -3.78125 -4.410156 -3.960938 -4.265625 -4.078125 C -4.128906 -4.203125 -3.953125 -4.285156 -3.734375 -4.328125 C -3.597656 -4.359375 -3.359375 -4.375 -3.015625 -4.375 L -1.953125 -4.375 C -1.222656 -4.375 -0.757812 -4.390625 -0.5625 -4.421875 C -0.363281 -4.453125 -0.175781 -4.519531 0 -4.625 L 0 -3.796875 C -0.164062 -3.710938 -0.359375 -3.660156 -0.578125 -3.640625 Z M -2.34375 -3.578125 C -2.226562 -3.285156 -2.128906 -2.851562 -2.046875 -2.28125 C -1.992188 -1.957031 -1.9375 -1.726562 -1.875 -1.59375 C -1.820312 -1.457031 -1.738281 -1.351562 -1.625 -1.28125 C -1.507812 -1.207031 -1.382812 -1.171875 -1.25 -1.171875 C -1.039062 -1.171875 -0.863281 -1.25 -0.71875 -1.40625 C -0.582031 -1.5625 -0.515625 -1.796875 -0.515625 -2.109375 C -0.515625 -2.410156 -0.582031 -2.679688 -0.71875 -2.921875 C -0.851562 -3.160156 -1.035156 -3.335938 -1.265625 -3.453125 C -1.441406 -3.535156 -1.703125 -3.578125 -2.046875 -3.578125 Z M -2.34375 -3.578125 "/>
</g>
<g id="glyph-2-3">
<path d="M 0 -0.59375 L -4.671875 -0.59375 L -4.671875 -1.3125 L -4 -1.3125 C -4.507812 -1.644531 -4.765625 -2.140625 -4.765625 -2.796875 C -4.765625 -3.078125 -4.710938 -3.332031 -4.609375 -3.5625 C -4.515625 -3.800781 -4.382812 -3.976562 -4.21875 -4.09375 C -4.0625 -4.207031 -3.867188 -4.289062 -3.640625 -4.34375 C -3.492188 -4.375 -3.238281 -4.390625 -2.875 -4.390625 L 0 -4.390625 L 0 -3.59375 L -2.84375 -3.59375 C -3.164062 -3.59375 -3.40625 -3.5625 -3.5625 -3.5 C -3.71875 -3.4375 -3.84375 -3.328125 -3.9375 -3.171875 C -4.039062 -3.015625 -4.09375 -2.832031 -4.09375 -2.625 C -4.09375 -2.289062 -3.984375 -2 -3.765625 -1.75 C -3.554688 -1.507812 -3.148438 -1.390625 -2.546875 -1.390625 L 0 -1.390625 Z M 0 -0.59375 "/>
</g>
<g id="glyph-2-4">
</g>
<g id="glyph-2-5">
<path d="M 0 -0.578125 L -4.671875 -0.578125 L -4.671875 -1.296875 L -3.953125 -1.296875 C -4.285156 -1.472656 -4.503906 -1.640625 -4.609375 -1.796875 C -4.710938 -1.953125 -4.765625 -2.125 -4.765625 -2.3125 C -4.765625 -2.570312 -4.679688 -2.84375 -4.515625 -3.125 L -3.78125 -2.84375 C -3.894531 -2.65625 -3.953125 -2.460938 -3.953125 -2.265625 C -3.953125 -2.097656 -3.898438 -1.941406 -3.796875 -1.796875 C -3.691406 -1.660156 -3.546875 -1.5625 -3.359375 -1.5 C -3.078125 -1.414062 -2.769531 -1.375 -2.4375 -1.375 L 0 -1.375 Z M 0 -0.578125 "/>
</g>
<g id="glyph-2-6">
<path d="M 0 -0.578125 L -6.4375 -0.578125 L -6.4375 -1.359375 L 0 -1.359375 Z M 0 -0.578125 "/>
</g>
<g id="glyph-2-7">
<path d="M -0.703125 -2.328125 L -0.015625 -2.4375 C 0.0351562 -2.207031 0.0625 -2.007812 0.0625 -1.84375 C 0.0625 -1.550781 0.015625 -1.328125 -0.078125 -1.171875 C -0.171875 -1.015625 -0.289062 -0.898438 -0.4375 -0.828125 C -0.582031 -0.765625 -0.890625 -0.734375 -1.359375 -0.734375 L -4.046875 -0.734375 L -4.046875 -0.15625 L -4.671875 -0.15625 L -4.671875 -0.734375 L -5.828125 -0.734375 L -6.296875 -1.53125 L -4.671875 -1.53125 L -4.671875 -2.328125 L -4.046875 -2.328125 L -4.046875 -1.53125 L -1.328125 -1.53125 C -1.097656 -1.53125 -0.953125 -1.539062 -0.890625 -1.5625 C -0.828125 -1.59375 -0.773438 -1.640625 -0.734375 -1.703125 C -0.691406 -1.765625 -0.671875 -1.851562 -0.671875 -1.96875 C -0.671875 -2.0625 -0.679688 -2.179688 -0.703125 -2.328125 Z M -0.703125 -2.328125 "/>
</g>
<g id="glyph-2-8">
<path d="M -5.53125 -0.59375 L -6.4375 -0.59375 L -6.4375 -1.390625 L -5.53125 -1.390625 Z M 0 -0.59375 L -4.671875 -0.59375 L -4.671875 -1.390625 L 0 -1.390625 Z M 0 -0.59375 "/>
</g>
<g id="glyph-2-9">
<path d="M 0 -1.890625 L -4.671875 -0.109375 L -4.671875 -0.953125 L -1.875 -1.953125 C -1.570312 -2.054688 -1.257812 -2.15625 -0.9375 -2.25 C -1.175781 -2.320312 -1.46875 -2.421875 -1.8125 -2.546875 L -4.671875 -3.578125 L -4.671875 -4.390625 L 0 -2.625 Z M 0 -1.890625 "/>
</g>
<g id="glyph-2-10">
<path d="M 0 -1.328125 L 0 -0.59375 L -6.4375 -0.59375 L -6.4375 -1.375 L -4.140625 -1.375 C -4.554688 -1.707031 -4.765625 -2.132812 -4.765625 -2.65625 C -4.765625 -2.945312 -4.707031 -3.21875 -4.59375 -3.46875 C -4.476562 -3.726562 -4.316406 -3.941406 -4.109375 -4.109375 C -3.898438 -4.273438 -3.644531 -4.40625 -3.34375 -4.5 C -3.050781 -4.59375 -2.738281 -4.640625 -2.40625 -4.640625 C -1.601562 -4.640625 -0.984375 -4.441406 -0.546875 -4.046875 C -0.109375 -3.648438 0.109375 -3.175781 0.109375 -2.625 C 0.109375 -2.070312 -0.117188 -1.640625 -0.578125 -1.328125 Z M -2.375 -1.3125 C -1.8125 -1.3125 -1.40625 -1.390625 -1.15625 -1.546875 C -0.75 -1.796875 -0.546875 -2.128906 -0.546875 -2.546875 C -0.546875 -2.898438 -0.695312 -3.203125 -1 -3.453125 C -1.300781 -3.703125 -1.75 -3.828125 -2.34375 -3.828125 C -2.945312 -3.828125 -3.394531 -3.707031 -3.6875 -3.46875 C -3.976562 -3.226562 -4.125 -2.9375 -4.125 -2.59375 C -4.125 -2.238281 -3.972656 -1.9375 -3.671875 -1.6875 C -3.367188 -1.4375 -2.9375 -1.3125 -2.375 -1.3125 Z M -2.375 -1.3125 "/>
</g>
<g id="glyph-2-11">
<path d="M 0 -3.65625 L -0.6875 -3.65625 C -0.15625 -3.289062 0.109375 -2.796875 0.109375 -2.171875 C 0.109375 -1.898438 0.0546875 -1.644531 -0.046875 -1.40625 C -0.160156 -1.164062 -0.296875 -0.984375 -0.453125 -0.859375 C -0.609375 -0.742188 -0.800781 -0.664062 -1.03125 -0.625 C -1.1875 -0.59375 -1.4375 -0.578125 -1.78125 -0.578125 L -4.671875 -0.578125 L -4.671875 -1.359375 L -2.078125 -1.359375 C -1.660156 -1.359375 -1.382812 -1.378906 -1.25 -1.421875 C -1.039062 -1.460938 -0.875 -1.5625 -0.75 -1.71875 C -0.632812 -1.882812 -0.578125 -2.085938 -0.578125 -2.328125 C -0.578125 -2.566406 -0.632812 -2.789062 -0.75 -3 C -0.875 -3.207031 -1.039062 -3.351562 -1.25 -3.4375 C -1.457031 -3.519531 -1.765625 -3.5625 -2.171875 -3.5625 L -4.671875 -3.5625 L -4.671875 -4.359375 L 0 -4.359375 Z M 0 -3.65625 "/>
</g>
<g id="glyph-2-12">
<path d="M 0 -3.625 L -0.59375 -3.625 C -0.125 -3.320312 0.109375 -2.882812 0.109375 -2.3125 C 0.109375 -1.945312 0.00390625 -1.609375 -0.203125 -1.296875 C -0.410156 -0.984375 -0.695312 -0.738281 -1.0625 -0.5625 C -1.425781 -0.394531 -1.847656 -0.3125 -2.328125 -0.3125 C -2.796875 -0.3125 -3.21875 -0.390625 -3.59375 -0.546875 C -3.976562 -0.703125 -4.269531 -0.929688 -4.46875 -1.234375 C -4.664062 -1.546875 -4.765625 -1.894531 -4.765625 -2.28125 C -4.765625 -2.5625 -4.707031 -2.8125 -4.59375 -3.03125 C -4.476562 -3.25 -4.320312 -3.425781 -4.125 -3.5625 L -6.4375 -3.5625 L -6.4375 -4.359375 L 0 -4.359375 Z M -2.328125 -1.125 C -1.734375 -1.125 -1.285156 -1.25 -0.984375 -1.5 C -0.691406 -1.75 -0.546875 -2.046875 -0.546875 -2.390625 C -0.546875 -2.734375 -0.6875 -3.023438 -0.96875 -3.265625 C -1.25 -3.515625 -1.679688 -3.640625 -2.265625 -3.640625 C -2.898438 -3.640625 -3.367188 -3.515625 -3.671875 -3.265625 C -3.972656 -3.015625 -4.125 -2.710938 -4.125 -2.359375 C -4.125 -2.003906 -3.976562 -1.707031 -3.6875 -1.46875 C -3.394531 -1.238281 -2.941406 -1.125 -2.328125 -1.125 Z M -2.328125 -1.125 "/>
</g>
<g id="glyph-2-13">
<path d="M -1.703125 -3.640625 L -1.609375 -4.421875 C -1.066406 -4.335938 -0.644531 -4.117188 -0.34375 -3.765625 C -0.0390625 -3.410156 0.109375 -2.976562 0.109375 -2.46875 C 0.109375 -1.832031 -0.0976562 -1.320312 -0.515625 -0.9375 C -0.929688 -0.550781 -1.53125 -0.359375 -2.3125 -0.359375 C -2.820312 -0.359375 -3.265625 -0.441406 -3.640625 -0.609375 C -4.015625 -0.773438 -4.296875 -1.023438 -4.484375 -1.359375 C -4.671875 -1.703125 -4.765625 -2.078125 -4.765625 -2.484375 C -4.765625 -2.984375 -4.632812 -3.394531 -4.375 -3.71875 C -4.125 -4.039062 -3.765625 -4.25 -3.296875 -4.34375 L -3.171875 -3.578125 C -3.484375 -3.503906 -3.71875 -3.375 -3.875 -3.1875 C -4.039062 -3 -4.125 -2.773438 -4.125 -2.515625 C -4.125 -2.109375 -3.976562 -1.78125 -3.6875 -1.53125 C -3.40625 -1.289062 -2.957031 -1.171875 -2.34375 -1.171875 C -1.707031 -1.171875 -1.25 -1.289062 -0.96875 -1.53125 C -0.6875 -1.769531 -0.546875 -2.082031 -0.546875 -2.46875 C -0.546875 -2.78125 -0.640625 -3.039062 -0.828125 -3.25 C -1.015625 -3.457031 -1.304688 -3.585938 -1.703125 -3.640625 Z M -1.703125 -3.640625 "/>
</g>
<g id="glyph-3-0">
<path d="M 0.625 0 L 0.625 -5.734375 L 2.78125 -5.734375 C 3.15625 -5.734375 3.445312 -5.710938 3.65625 -5.671875 C 3.9375 -5.628906 4.171875 -5.539062 4.359375 -5.40625 C 4.546875 -5.269531 4.695312 -5.082031 4.8125 -4.84375 C 4.925781 -4.613281 4.984375 -4.359375 4.984375 -4.078125 C 4.984375 -3.585938 4.828125 -3.171875 4.515625 -2.828125 C 4.210938 -2.492188 3.65625 -2.328125 2.84375 -2.328125 L 1.375 -2.328125 L 1.375 0 Z M 1.375 -3 L 2.859375 -3 C 3.347656 -3 3.691406 -3.085938 3.890625 -3.265625 C 4.097656 -3.453125 4.203125 -3.710938 4.203125 -4.046875 C 4.203125 -4.285156 4.140625 -4.488281 4.015625 -4.65625 C 3.898438 -4.832031 3.742188 -4.945312 3.546875 -5 C 3.421875 -5.03125 3.1875 -5.046875 2.84375 -5.046875 L 1.375 -5.046875 Z M 1.375 -3 "/>
</g>
<g id="glyph-3-1">
<path d="M 0.53125 0 L 0.53125 -5.734375 L 1.234375 -5.734375 L 1.234375 -3.671875 C 1.554688 -4.054688 1.96875 -4.25 2.46875 -4.25 C 2.78125 -4.25 3.046875 -4.1875 3.265625 -4.0625 C 3.492188 -3.9375 3.65625 -3.765625 3.75 -3.546875 C 3.851562 -3.335938 3.90625 -3.03125 3.90625 -2.625 L 3.90625 0 L 3.203125 0 L 3.203125 -2.625 C 3.203125 -2.976562 3.125 -3.234375 2.96875 -3.390625 C 2.820312 -3.554688 2.609375 -3.640625 2.328125 -3.640625 C 2.117188 -3.640625 1.921875 -3.582031 1.734375 -3.46875 C 1.554688 -3.363281 1.425781 -3.21875 1.34375 -3.03125 C 1.269531 -2.851562 1.234375 -2.597656 1.234375 -2.265625 L 1.234375 0 Z M 0.53125 0 "/>
</g>
<g id="glyph-3-2">
<path d="M 0.5 1.59375 L 0.421875 0.9375 C 0.578125 0.976562 0.710938 1 0.828125 1 C 0.984375 1 1.109375 0.972656 1.203125 0.921875 C 1.296875 0.867188 1.367188 0.796875 1.421875 0.703125 C 1.472656 0.628906 1.546875 0.457031 1.640625 0.1875 C 1.648438 0.144531 1.671875 0.0859375 1.703125 0.015625 L 0.125 -4.15625 L 0.890625 -4.15625 L 1.75 -1.75 C 1.863281 -1.445312 1.960938 -1.125 2.046875 -0.78125 C 2.128906 -1.101562 2.226562 -1.421875 2.34375 -1.734375 L 3.234375 -4.15625 L 3.9375 -4.15625 L 2.359375 0.078125 C 2.179688 0.523438 2.046875 0.835938 1.953125 1.015625 C 1.828125 1.242188 1.679688 1.410156 1.515625 1.515625 C 1.359375 1.628906 1.171875 1.6875 0.953125 1.6875 C 0.816406 1.6875 0.664062 1.65625 0.5 1.59375 Z M 0.5 1.59375 "/>
</g>
<g id="glyph-3-3">
<path d="M 0.515625 0 L 0.515625 -5.734375 L 1.21875 -5.734375 L 1.21875 0 Z M 0.515625 0 "/>
</g>
<g id="glyph-3-4">
<path d="M 3.25 0 L 3.25 -0.609375 C 2.925781 -0.140625 2.488281 0.09375 1.9375 0.09375 C 1.6875 0.09375 1.453125 0.046875 1.234375 -0.046875 C 1.023438 -0.140625 0.867188 -0.253906 0.765625 -0.390625 C 0.671875 -0.535156 0.601562 -0.710938 0.5625 -0.921875 C 0.53125 -1.054688 0.515625 -1.273438 0.515625 -1.578125 L 0.515625 -4.15625 L 1.21875 -4.15625 L 1.21875 -1.84375 C 1.21875 -1.476562 1.234375 -1.234375 1.265625 -1.109375 C 1.304688 -0.921875 1.394531 -0.773438 1.53125 -0.671875 C 1.675781 -0.566406 1.859375 -0.515625 2.078125 -0.515625 C 2.285156 -0.515625 2.476562 -0.566406 2.65625 -0.671875 C 2.84375 -0.785156 2.972656 -0.929688 3.046875 -1.109375 C 3.128906 -1.296875 3.171875 -1.566406 3.171875 -1.921875 L 3.171875 -4.15625 L 3.875 -4.15625 L 3.875 0 Z M 3.25 0 "/>
</g>
<g id="glyph-3-5">
<path d="M 0.53125 0 L 0.53125 -4.15625 L 1.15625 -4.15625 L 1.15625 -3.5625 C 1.289062 -3.769531 1.460938 -3.9375 1.671875 -4.0625 C 1.890625 -4.1875 2.140625 -4.25 2.421875 -4.25 C 2.722656 -4.25 2.972656 -4.179688 3.171875 -4.046875 C 3.367188 -3.921875 3.507812 -3.742188 3.59375 -3.515625 C 3.914062 -4.003906 4.34375 -4.25 4.875 -4.25 C 5.28125 -4.25 5.59375 -4.132812 5.8125 -3.90625 C 6.039062 -3.675781 6.15625 -3.320312 6.15625 -2.84375 L 6.15625 0 L 5.453125 0 L 5.453125 -2.609375 C 5.453125 -2.890625 5.425781 -3.09375 5.375 -3.21875 C 5.332031 -3.34375 5.25 -3.441406 5.125 -3.515625 C 5.007812 -3.597656 4.875 -3.640625 4.71875 -3.640625 C 4.425781 -3.640625 4.179688 -3.539062 3.984375 -3.34375 C 3.796875 -3.144531 3.703125 -2.832031 3.703125 -2.40625 L 3.703125 0 L 3 0 L 3 -2.703125 C 3 -3.015625 2.941406 -3.25 2.828125 -3.40625 C 2.710938 -3.5625 2.523438 -3.640625 2.265625 -3.640625 C 2.066406 -3.640625 1.878906 -3.585938 1.703125 -3.484375 C 1.535156 -3.378906 1.414062 -3.222656 1.34375 -3.015625 C 1.269531 -2.816406 1.234375 -2.53125 1.234375 -2.15625 L 1.234375 0 Z M 0.53125 0 "/>
</g>
<g id="glyph-4-0">
<path d="M 4.109375 -1.75 L 4.78125 -1.59375 C 4.632812 -1.039062 4.378906 -0.625 4.015625 -0.34375 C 3.660156 -0.0625 3.222656 0.078125 2.703125 0.078125 C 2.160156 0.078125 1.71875 -0.03125 1.375 -0.25 C 1.039062 -0.46875 0.785156 -0.785156 0.609375 -1.203125 C 0.429688 -1.617188 0.34375 -2.066406 0.34375 -2.546875 C 0.34375 -3.066406 0.441406 -3.519531 0.640625 -3.90625 C 0.847656 -4.289062 1.132812 -4.582031 1.5 -4.78125 C 1.863281 -4.988281 2.269531 -5.09375 2.71875 -5.09375 C 3.21875 -5.09375 3.632812 -4.960938 3.96875 -4.703125 C 4.3125 -4.453125 4.550781 -4.097656 4.6875 -3.640625 L 4.046875 -3.484375 C 3.921875 -3.847656 3.75 -4.113281 3.53125 -4.28125 C 3.3125 -4.445312 3.035156 -4.53125 2.703125 -4.53125 C 2.316406 -4.53125 1.992188 -4.4375 1.734375 -4.25 C 1.472656 -4.0625 1.289062 -3.8125 1.1875 -3.5 C 1.082031 -3.195312 1.03125 -2.878906 1.03125 -2.546875 C 1.03125 -2.117188 1.09375 -1.742188 1.21875 -1.421875 C 1.34375 -1.109375 1.535156 -0.875 1.796875 -0.71875 C 2.054688 -0.5625 2.34375 -0.484375 2.65625 -0.484375 C 3.019531 -0.484375 3.332031 -0.585938 3.59375 -0.796875 C 3.851562 -1.015625 4.023438 -1.332031 4.109375 -1.75 Z M 4.109375 -1.75 "/>
</g>
<g id="glyph-4-1">
<path d="M 2.828125 -0.453125 C 2.597656 -0.253906 2.378906 -0.113281 2.171875 -0.03125 C 1.960938 0.0390625 1.738281 0.078125 1.5 0.078125 C 1.09375 0.078125 0.78125 -0.015625 0.5625 -0.203125 C 0.351562 -0.398438 0.25 -0.648438 0.25 -0.953125 C 0.25 -1.128906 0.289062 -1.289062 0.375 -1.4375 C 0.457031 -1.59375 0.5625 -1.710938 0.6875 -1.796875 C 0.820312 -1.890625 0.972656 -1.957031 1.140625 -2 C 1.253906 -2.03125 1.4375 -2.0625 1.6875 -2.09375 C 2.175781 -2.15625 2.539062 -2.222656 2.78125 -2.296875 C 2.78125 -2.390625 2.78125 -2.445312 2.78125 -2.46875 C 2.78125 -2.71875 2.722656 -2.894531 2.609375 -3 C 2.453125 -3.132812 2.21875 -3.203125 1.90625 -3.203125 C 1.613281 -3.203125 1.398438 -3.148438 1.265625 -3.046875 C 1.128906 -2.953125 1.023438 -2.773438 0.953125 -2.515625 L 0.359375 -2.59375 C 0.410156 -2.851562 0.5 -3.0625 0.625 -3.21875 C 0.75 -3.375 0.929688 -3.492188 1.171875 -3.578125 C 1.410156 -3.671875 1.6875 -3.71875 2 -3.71875 C 2.3125 -3.71875 2.5625 -3.679688 2.75 -3.609375 C 2.945312 -3.535156 3.085938 -3.441406 3.171875 -3.328125 C 3.265625 -3.210938 3.332031 -3.070312 3.375 -2.90625 C 3.394531 -2.800781 3.40625 -2.613281 3.40625 -2.34375 L 3.40625 -1.515625 C 3.40625 -0.941406 3.414062 -0.578125 3.4375 -0.421875 C 3.46875 -0.273438 3.519531 -0.132812 3.59375 0 L 2.953125 0 C 2.890625 -0.125 2.847656 -0.273438 2.828125 -0.453125 Z M 2.78125 -1.828125 C 2.550781 -1.734375 2.21875 -1.65625 1.78125 -1.59375 C 1.519531 -1.550781 1.335938 -1.503906 1.234375 -1.453125 C 1.128906 -1.410156 1.046875 -1.347656 0.984375 -1.265625 C 0.929688 -1.179688 0.90625 -1.082031 0.90625 -0.96875 C 0.90625 -0.8125 0.96875 -0.675781 1.09375 -0.5625 C 1.21875 -0.457031 1.398438 -0.40625 1.640625 -0.40625 C 1.878906 -0.40625 2.085938 -0.457031 2.265625 -0.5625 C 2.453125 -0.664062 2.59375 -0.804688 2.6875 -0.984375 C 2.75 -1.117188 2.78125 -1.320312 2.78125 -1.59375 Z M 2.78125 -1.828125 "/>
</g>
<g id="glyph-4-2">
<path d="M 0.46875 0 L 0.46875 -3.625 L 1.015625 -3.625 L 1.015625 -3.125 C 1.128906 -3.300781 1.28125 -3.441406 1.46875 -3.546875 C 1.65625 -3.660156 1.867188 -3.71875 2.109375 -3.71875 C 2.378906 -3.71875 2.597656 -3.660156 2.765625 -3.546875 C 2.941406 -3.429688 3.066406 -3.273438 3.140625 -3.078125 C 3.421875 -3.503906 3.796875 -3.71875 4.265625 -3.71875 C 4.617188 -3.71875 4.890625 -3.613281 5.078125 -3.40625 C 5.273438 -3.207031 5.375 -2.898438 5.375 -2.484375 L 5.375 0 L 4.765625 0 L 4.765625 -2.28125 C 4.765625 -2.53125 4.742188 -2.707031 4.703125 -2.8125 C 4.671875 -2.925781 4.597656 -3.015625 4.484375 -3.078125 C 4.378906 -3.140625 4.257812 -3.171875 4.125 -3.171875 C 3.863281 -3.171875 3.648438 -3.085938 3.484375 -2.921875 C 3.316406 -2.753906 3.234375 -2.484375 3.234375 -2.109375 L 3.234375 0 L 2.625 0 L 2.625 -2.359375 C 2.625 -2.628906 2.570312 -2.832031 2.46875 -2.96875 C 2.363281 -3.101562 2.195312 -3.171875 1.96875 -3.171875 C 1.800781 -3.171875 1.644531 -3.125 1.5 -3.03125 C 1.351562 -2.945312 1.242188 -2.816406 1.171875 -2.640625 C 1.109375 -2.460938 1.078125 -2.210938 1.078125 -1.890625 L 1.078125 0 Z M 0.46875 0 "/>
</g>
<g id="glyph-4-3">
<path d="M 0.46875 1.390625 L 0.46875 -3.625 L 1.015625 -3.625 L 1.015625 -3.15625 C 1.148438 -3.34375 1.300781 -3.484375 1.46875 -3.578125 C 1.632812 -3.671875 1.835938 -3.71875 2.078125 -3.71875 C 2.390625 -3.71875 2.660156 -3.632812 2.890625 -3.46875 C 3.128906 -3.3125 3.304688 -3.085938 3.421875 -2.796875 C 3.546875 -2.503906 3.609375 -2.1875 3.609375 -1.84375 C 3.609375 -1.46875 3.539062 -1.128906 3.40625 -0.828125 C 3.28125 -0.535156 3.085938 -0.3125 2.828125 -0.15625 C 2.578125 0 2.3125 0.078125 2.03125 0.078125 C 1.820312 0.078125 1.632812 0.0351562 1.46875 -0.046875 C 1.3125 -0.128906 1.179688 -0.238281 1.078125 -0.375 L 1.078125 1.390625 Z M 1.015625 -1.796875 C 1.015625 -1.328125 1.109375 -0.976562 1.296875 -0.75 C 1.492188 -0.53125 1.722656 -0.421875 1.984375 -0.421875 C 2.265625 -0.421875 2.5 -0.535156 2.6875 -0.765625 C 2.882812 -1.003906 2.984375 -1.363281 2.984375 -1.84375 C 2.984375 -2.3125 2.882812 -2.660156 2.6875 -2.890625 C 2.5 -3.117188 2.273438 -3.234375 2.015625 -3.234375 C 1.753906 -3.234375 1.519531 -3.109375 1.3125 -2.859375 C 1.113281 -2.617188 1.015625 -2.265625 1.015625 -1.796875 Z M 1.015625 -1.796875 "/>
</g>
<g id="glyph-4-4">
<path d="M 0.4375 1.390625 L 0.359375 0.828125 C 0.492188 0.859375 0.613281 0.875 0.71875 0.875 C 0.851562 0.875 0.960938 0.847656 1.046875 0.796875 C 1.128906 0.753906 1.195312 0.691406 1.25 0.609375 C 1.289062 0.546875 1.351562 0.394531 1.4375 0.15625 C 1.445312 0.125 1.460938 0.0703125 1.484375 0 L 0.109375 -3.625 L 0.78125 -3.625 L 1.53125 -1.53125 C 1.625 -1.257812 1.710938 -0.976562 1.796875 -0.6875 C 1.867188 -0.96875 1.953125 -1.242188 2.046875 -1.515625 L 2.828125 -3.625 L 3.4375 -3.625 L 2.0625 0.0625 C 1.90625 0.457031 1.789062 0.734375 1.71875 0.890625 C 1.601562 1.085938 1.472656 1.234375 1.328125 1.328125 C 1.191406 1.421875 1.023438 1.46875 0.828125 1.46875 C 0.710938 1.46875 0.582031 1.441406 0.4375 1.390625 Z M 0.4375 1.390625 "/>
</g>
<g id="glyph-4-5">
<path d="M 0.453125 0 L 0.453125 -5.015625 L 1.0625 -5.015625 L 1.0625 0 Z M 0.453125 0 "/>
</g>
<g id="glyph-4-6">
<path d="M 0.234375 -1.8125 C 0.234375 -2.488281 0.421875 -2.988281 0.796875 -3.3125 C 1.109375 -3.582031 1.488281 -3.71875 1.9375 -3.71875 C 2.4375 -3.71875 2.84375 -3.550781 3.15625 -3.21875 C 3.476562 -2.894531 3.640625 -2.441406 3.640625 -1.859375 C 3.640625 -1.398438 3.566406 -1.035156 3.421875 -0.765625 C 3.285156 -0.492188 3.082031 -0.285156 2.8125 -0.140625 C 2.539062 0.00390625 2.25 0.078125 1.9375 0.078125 C 1.425781 0.078125 1.015625 -0.0820312 0.703125 -0.40625 C 0.390625 -0.726562 0.234375 -1.195312 0.234375 -1.8125 Z M 0.859375 -1.8125 C 0.859375 -1.351562 0.957031 -1.003906 1.15625 -0.765625 C 1.363281 -0.535156 1.625 -0.421875 1.9375 -0.421875 C 2.238281 -0.421875 2.488281 -0.535156 2.6875 -0.765625 C 2.894531 -1.003906 3 -1.359375 3 -1.828125 C 3 -2.285156 2.894531 -2.628906 2.6875 -2.859375 C 2.488281 -3.085938 2.238281 -3.203125 1.9375 -3.203125 C 1.625 -3.203125 1.363281 -3.085938 1.15625 -2.859375 C 0.957031 -2.628906 0.859375 -2.28125 0.859375 -1.8125 Z M 0.859375 -1.8125 "/>
</g>
<g id="glyph-4-7">
<path d="M 1.03125 0 L 0.453125 0 L 0.453125 -5.015625 L 1.078125 -5.015625 L 1.078125 -3.21875 C 1.335938 -3.550781 1.664062 -3.71875 2.0625 -3.71875 C 2.289062 -3.71875 2.503906 -3.671875 2.703125 -3.578125 C 2.898438 -3.484375 3.0625 -3.351562 3.1875 -3.1875 C 3.320312 -3.03125 3.425781 -2.835938 3.5 -2.609375 C 3.570312 -2.378906 3.609375 -2.132812 3.609375 -1.875 C 3.609375 -1.25 3.453125 -0.765625 3.140625 -0.421875 C 2.835938 -0.0859375 2.46875 0.078125 2.03125 0.078125 C 1.601562 0.078125 1.269531 -0.0976562 1.03125 -0.453125 Z M 1.015625 -1.84375 C 1.015625 -1.40625 1.078125 -1.09375 1.203125 -0.90625 C 1.390625 -0.582031 1.648438 -0.421875 1.984375 -0.421875 C 2.253906 -0.421875 2.488281 -0.535156 2.6875 -0.765625 C 2.882812 -1.003906 2.984375 -1.351562 2.984375 -1.8125 C 2.984375 -2.289062 2.882812 -2.640625 2.6875 -2.859375 C 2.5 -3.085938 2.273438 -3.203125 2.015625 -3.203125 C 1.742188 -3.203125 1.507812 -3.082031 1.3125 -2.84375 C 1.113281 -2.613281 1.015625 -2.28125 1.015625 -1.84375 Z M 1.015625 -1.84375 "/>
</g>
<g id="glyph-4-8">
<path d="M 2.828125 -1.328125 L 3.4375 -1.25 C 3.375 -0.832031 3.203125 -0.503906 2.921875 -0.265625 C 2.648438 -0.0351562 2.316406 0.078125 1.921875 0.078125 C 1.421875 0.078125 1.019531 -0.0820312 0.71875 -0.40625 C 0.425781 -0.726562 0.28125 -1.191406 0.28125 -1.796875 C 0.28125 -2.191406 0.34375 -2.535156 0.46875 -2.828125 C 0.59375 -3.117188 0.785156 -3.335938 1.046875 -3.484375 C 1.316406 -3.640625 1.609375 -3.71875 1.921875 -3.71875 C 2.316406 -3.71875 2.640625 -3.613281 2.890625 -3.40625 C 3.140625 -3.207031 3.300781 -2.925781 3.375 -2.5625 L 2.78125 -2.46875 C 2.71875 -2.71875 2.613281 -2.898438 2.46875 -3.015625 C 2.332031 -3.140625 2.160156 -3.203125 1.953125 -3.203125 C 1.640625 -3.203125 1.382812 -3.09375 1.1875 -2.875 C 1 -2.65625 0.90625 -2.300781 0.90625 -1.8125 C 0.90625 -1.332031 1 -0.976562 1.1875 -0.75 C 1.375 -0.53125 1.617188 -0.421875 1.921875 -0.421875 C 2.160156 -0.421875 2.359375 -0.492188 2.515625 -0.640625 C 2.679688 -0.796875 2.785156 -1.023438 2.828125 -1.328125 Z M 2.828125 -1.328125 "/>
</g>
<g id="glyph-4-9">
<path d="M 1.8125 -0.546875 L 1.890625 0 C 1.722656 0.03125 1.566406 0.046875 1.421875 0.046875 C 1.203125 0.046875 1.03125 0.0078125 0.90625 -0.0625 C 0.78125 -0.132812 0.691406 -0.226562 0.640625 -0.34375 C 0.597656 -0.457031 0.578125 -0.695312 0.578125 -1.0625 L 0.578125 -3.15625 L 0.125 -3.15625 L 0.125 -3.625 L 0.578125 -3.625 L 0.578125 -4.53125 L 1.1875 -4.890625 L 1.1875 -3.625 L 1.8125 -3.625 L 1.8125 -3.15625 L 1.1875 -3.15625 L 1.1875 -1.03125 C 1.1875 -0.851562 1.195312 -0.738281 1.21875 -0.6875 C 1.238281 -0.632812 1.269531 -0.59375 1.3125 -0.5625 C 1.363281 -0.539062 1.4375 -0.53125 1.53125 -0.53125 C 1.601562 -0.53125 1.695312 -0.535156 1.8125 -0.546875 Z M 1.8125 -0.546875 "/>
</g>
<g id="glyph-4-10">
<path d="M 2.953125 -1.171875 L 3.578125 -1.09375 C 3.484375 -0.71875 3.300781 -0.425781 3.03125 -0.21875 C 2.757812 -0.0195312 2.410156 0.078125 1.984375 0.078125 C 1.453125 0.078125 1.03125 -0.0820312 0.71875 -0.40625 C 0.40625 -0.738281 0.25 -1.195312 0.25 -1.78125 C 0.25 -2.394531 0.40625 -2.867188 0.71875 -3.203125 C 1.039062 -3.546875 1.453125 -3.71875 1.953125 -3.71875 C 2.441406 -3.71875 2.835938 -3.550781 3.140625 -3.21875 C 3.453125 -2.882812 3.609375 -2.421875 3.609375 -1.828125 C 3.609375 -1.785156 3.601562 -1.726562 3.59375 -1.65625 L 0.890625 -1.65625 C 0.910156 -1.257812 1.019531 -0.953125 1.21875 -0.734375 C 1.425781 -0.523438 1.679688 -0.421875 1.984375 -0.421875 C 2.210938 -0.421875 2.40625 -0.476562 2.5625 -0.59375 C 2.726562 -0.71875 2.859375 -0.910156 2.953125 -1.171875 Z M 0.921875 -2.15625 L 2.953125 -2.15625 C 2.921875 -2.46875 2.84375 -2.695312 2.71875 -2.84375 C 2.519531 -3.082031 2.265625 -3.203125 1.953125 -3.203125 C 1.671875 -3.203125 1.429688 -3.109375 1.234375 -2.921875 C 1.046875 -2.734375 0.941406 -2.476562 0.921875 -2.15625 Z M 0.921875 -2.15625 "/>
</g>
<g id="glyph-4-11">
<path d="M 0.453125 0 L 0.453125 -3.625 L 1.015625 -3.625 L 1.015625 -3.078125 C 1.148438 -3.335938 1.273438 -3.507812 1.390625 -3.59375 C 1.515625 -3.675781 1.648438 -3.71875 1.796875 -3.71875 C 2.003906 -3.71875 2.210938 -3.648438 2.421875 -3.515625 L 2.21875 -2.9375 C 2.0625 -3.03125 1.910156 -3.078125 1.765625 -3.078125 C 1.628906 -3.078125 1.503906 -3.035156 1.390625 -2.953125 C 1.285156 -2.867188 1.210938 -2.757812 1.171875 -2.625 C 1.097656 -2.40625 1.0625 -2.164062 1.0625 -1.90625 L 1.0625 0 Z M 0.453125 0 "/>
</g>
<g id="glyph-4-12">
<path d="M 1.96875 0 L 0.03125 -5.015625 L 0.75 -5.015625 L 2.046875 -1.375 C 2.148438 -1.082031 2.238281 -0.804688 2.3125 -0.546875 C 2.394531 -0.816406 2.484375 -1.09375 2.578125 -1.375 L 3.9375 -5.015625 L 4.609375 -5.015625 L 2.65625 0 Z M 1.96875 0 "/>
</g>
<g id="glyph-4-13">
<path d="M 2.84375 0 L 2.84375 -0.53125 C 2.5625 -0.125 2.175781 0.078125 1.6875 0.078125 C 1.476562 0.078125 1.28125 0.0351562 1.09375 -0.046875 C 0.90625 -0.128906 0.765625 -0.226562 0.671875 -0.34375 C 0.585938 -0.46875 0.523438 -0.625 0.484375 -0.8125 C 0.460938 -0.925781 0.453125 -1.113281 0.453125 -1.375 L 0.453125 -3.625 L 1.0625 -3.625 L 1.0625 -1.609375 C 1.0625 -1.296875 1.070312 -1.082031 1.09375 -0.96875 C 1.132812 -0.800781 1.21875 -0.671875 1.34375 -0.578125 C 1.46875 -0.492188 1.625 -0.453125 1.8125 -0.453125 C 2 -0.453125 2.171875 -0.5 2.328125 -0.59375 C 2.492188 -0.6875 2.609375 -0.8125 2.671875 -0.96875 C 2.742188 -1.132812 2.78125 -1.375 2.78125 -1.6875 L 2.78125 -3.625 L 3.390625 -3.625 L 3.390625 0 Z M 2.84375 0 "/>
</g>
<g id="glyph-4-14">
<path d="M 0.46875 -4.296875 L 0.46875 -5.015625 L 1.078125 -5.015625 L 1.078125 -4.296875 Z M 0.46875 0 L 0.46875 -3.625 L 1.078125 -3.625 L 1.078125 0 Z M 0.46875 0 "/>
</g>
<g id="glyph-4-15">
<path d="M -0.015625 0 L 1.921875 -5.015625 L 2.625 -5.015625 L 4.671875 0 L 3.921875 0 L 3.34375 -1.515625 L 1.25 -1.515625 L 0.6875 0 Z M 1.4375 -2.0625 L 3.140625 -2.0625 L 2.609375 -3.453125 C 2.453125 -3.867188 2.332031 -4.210938 2.25 -4.484375 C 2.1875 -4.160156 2.097656 -3.84375 1.984375 -3.53125 Z M 1.4375 -2.0625 "/>
</g>
<g id="glyph-4-16">
<path d="M 0.46875 0 L 0.46875 -3.625 L 1.015625 -3.625 L 1.015625 -3.109375 C 1.285156 -3.515625 1.671875 -3.71875 2.171875 -3.71875 C 2.390625 -3.71875 2.585938 -3.675781 2.765625 -3.59375 C 2.953125 -3.507812 3.09375 -3.40625 3.1875 -3.28125 C 3.28125 -3.15625 3.34375 -3.003906 3.375 -2.828125 C 3.394531 -2.710938 3.40625 -2.515625 3.40625 -2.234375 L 3.40625 0 L 2.796875 0 L 2.796875 -2.203125 C 2.796875 -2.453125 2.769531 -2.640625 2.71875 -2.765625 C 2.675781 -2.890625 2.59375 -2.988281 2.46875 -3.0625 C 2.34375 -3.132812 2.203125 -3.171875 2.046875 -3.171875 C 1.773438 -3.171875 1.546875 -3.085938 1.359375 -2.921875 C 1.171875 -2.765625 1.078125 -2.453125 1.078125 -1.984375 L 1.078125 0 Z M 0.46875 0 "/>
</g>
<g id="glyph-4-17">
<path d="M 0.515625 0 L 0.515625 -5.015625 L 2.390625 -5.015625 C 2.773438 -5.015625 3.082031 -4.960938 3.3125 -4.859375 C 3.539062 -4.753906 3.71875 -4.597656 3.84375 -4.390625 C 3.976562 -4.179688 4.046875 -3.960938 4.046875 -3.734375 C 4.046875 -3.515625 3.988281 -3.3125 3.875 -3.125 C 3.757812 -2.9375 3.585938 -2.785156 3.359375 -2.671875 C 3.660156 -2.578125 3.890625 -2.421875 4.046875 -2.203125 C 4.210938 -1.992188 4.296875 -1.742188 4.296875 -1.453125 C 4.296875 -1.210938 4.242188 -0.992188 4.140625 -0.796875 C 4.046875 -0.597656 3.925781 -0.441406 3.78125 -0.328125 C 3.632812 -0.222656 3.453125 -0.140625 3.234375 -0.078125 C 3.015625 -0.0234375 2.742188 0 2.421875 0 Z M 1.171875 -2.90625 L 2.265625 -2.90625 C 2.554688 -2.90625 2.765625 -2.925781 2.890625 -2.96875 C 3.054688 -3.007812 3.179688 -3.085938 3.265625 -3.203125 C 3.359375 -3.328125 3.40625 -3.476562 3.40625 -3.65625 C 3.40625 -3.820312 3.363281 -3.96875 3.28125 -4.09375 C 3.195312 -4.21875 3.082031 -4.300781 2.9375 -4.34375 C 2.789062 -4.394531 2.535156 -4.421875 2.171875 -4.421875 L 1.171875 -4.421875 Z M 1.171875 -0.59375 L 2.421875 -0.59375 C 2.640625 -0.59375 2.789062 -0.597656 2.875 -0.609375 C 3.03125 -0.640625 3.15625 -0.6875 3.25 -0.75 C 3.351562 -0.8125 3.4375 -0.90625 3.5 -1.03125 C 3.570312 -1.15625 3.609375 -1.296875 3.609375 -1.453125 C 3.609375 -1.640625 3.5625 -1.800781 3.46875 -1.9375 C 3.375 -2.070312 3.238281 -2.164062 3.0625 -2.21875 C 2.894531 -2.28125 2.648438 -2.3125 2.328125 -2.3125 L 1.171875 -2.3125 Z M 1.171875 -0.59375 "/>
</g>
<g id="glyph-4-18">
<path d="M 2.8125 0 L 2.8125 -0.453125 C 2.582031 -0.0976562 2.242188 0.078125 1.796875 0.078125 C 1.515625 0.078125 1.25 0 1 -0.15625 C 0.757812 -0.3125 0.570312 -0.53125 0.4375 -0.8125 C 0.300781 -1.101562 0.234375 -1.4375 0.234375 -1.8125 C 0.234375 -2.175781 0.296875 -2.503906 0.421875 -2.796875 C 0.546875 -3.085938 0.726562 -3.3125 0.96875 -3.46875 C 1.207031 -3.632812 1.476562 -3.71875 1.78125 -3.71875 C 2 -3.71875 2.191406 -3.671875 2.359375 -3.578125 C 2.523438 -3.484375 2.664062 -3.363281 2.78125 -3.21875 L 2.78125 -5.015625 L 3.390625 -5.015625 L 3.390625 0 Z M 0.875 -1.8125 C 0.875 -1.34375 0.96875 -0.992188 1.15625 -0.765625 C 1.351562 -0.535156 1.585938 -0.421875 1.859375 -0.421875 C 2.128906 -0.421875 2.359375 -0.53125 2.546875 -0.75 C 2.734375 -0.96875 2.828125 -1.304688 2.828125 -1.765625 C 2.828125 -2.253906 2.726562 -2.613281 2.53125 -2.84375 C 2.34375 -3.082031 2.109375 -3.203125 1.828125 -3.203125 C 1.554688 -3.203125 1.328125 -3.085938 1.140625 -2.859375 C 0.960938 -2.640625 0.875 -2.289062 0.875 -1.8125 Z M 0.875 -1.8125 "/>
</g>
<g id="glyph-4-19">
<path d="M 0.578125 0 L 0.578125 -5.015625 L 3.953125 -5.015625 L 3.953125 -4.421875 L 1.234375 -4.421875 L 1.234375 -2.875 L 3.59375 -2.875 L 3.59375 -2.28125 L 1.234375 -2.28125 L 1.234375 0 Z M 0.578125 0 "/>
</g>
<g id="glyph-4-20">
<path d="M 0.21875 -1.078125 L 0.828125 -1.171875 C 0.859375 -0.929688 0.953125 -0.742188 1.109375 -0.609375 C 1.265625 -0.484375 1.484375 -0.421875 1.765625 -0.421875 C 2.046875 -0.421875 2.253906 -0.476562 2.390625 -0.59375 C 2.523438 -0.707031 2.59375 -0.84375 2.59375 -1 C 2.59375 -1.132812 2.535156 -1.242188 2.421875 -1.328125 C 2.335938 -1.378906 2.125 -1.445312 1.78125 -1.53125 C 1.332031 -1.644531 1.019531 -1.742188 0.84375 -1.828125 C 0.675781 -1.910156 0.546875 -2.023438 0.453125 -2.171875 C 0.359375 -2.328125 0.3125 -2.492188 0.3125 -2.671875 C 0.3125 -2.828125 0.347656 -2.972656 0.421875 -3.109375 C 0.503906 -3.253906 0.609375 -3.367188 0.734375 -3.453125 C 0.828125 -3.523438 0.957031 -3.585938 1.125 -3.640625 C 1.289062 -3.691406 1.46875 -3.71875 1.65625 -3.71875 C 1.9375 -3.71875 2.1875 -3.675781 2.40625 -3.59375 C 2.625 -3.507812 2.78125 -3.394531 2.875 -3.25 C 2.976562 -3.113281 3.050781 -2.925781 3.09375 -2.6875 L 2.484375 -2.609375 C 2.460938 -2.796875 2.382812 -2.941406 2.25 -3.046875 C 2.125 -3.148438 1.941406 -3.203125 1.703125 -3.203125 C 1.421875 -3.203125 1.21875 -3.15625 1.09375 -3.0625 C 0.96875 -2.96875 0.90625 -2.859375 0.90625 -2.734375 C 0.90625 -2.660156 0.929688 -2.585938 0.984375 -2.515625 C 1.035156 -2.453125 1.113281 -2.398438 1.21875 -2.359375 C 1.28125 -2.335938 1.460938 -2.285156 1.765625 -2.203125 C 2.203125 -2.085938 2.503906 -1.992188 2.671875 -1.921875 C 2.847656 -1.847656 2.984375 -1.738281 3.078125 -1.59375 C 3.179688 -1.445312 3.234375 -1.269531 3.234375 -1.0625 C 3.234375 -0.863281 3.171875 -0.671875 3.046875 -0.484375 C 2.929688 -0.304688 2.757812 -0.164062 2.53125 -0.0625 C 2.300781 0.03125 2.046875 0.078125 1.765625 0.078125 C 1.296875 0.078125 0.9375 -0.015625 0.6875 -0.203125 C 0.4375 -0.398438 0.28125 -0.691406 0.21875 -1.078125 Z M 0.21875 -1.078125 "/>
</g>
<g id="glyph-4-21">
<path d="M 0.546875 0 L 0.546875 -5.015625 L 2.4375 -5.015625 C 2.757812 -5.015625 3.007812 -5 3.1875 -4.96875 C 3.4375 -4.925781 3.644531 -4.847656 3.8125 -4.734375 C 3.976562 -4.617188 4.109375 -4.457031 4.203125 -4.25 C 4.304688 -4.039062 4.359375 -3.8125 4.359375 -3.5625 C 4.359375 -3.132812 4.222656 -2.769531 3.953125 -2.46875 C 3.679688 -2.175781 3.191406 -2.03125 2.484375 -2.03125 L 1.203125 -2.03125 L 1.203125 0 Z M 1.203125 -2.625 L 2.5 -2.625 C 2.925781 -2.625 3.226562 -2.703125 3.40625 -2.859375 C 3.59375 -3.023438 3.6875 -3.253906 3.6875 -3.546875 C 3.6875 -3.753906 3.628906 -3.929688 3.515625 -4.078125 C 3.410156 -4.222656 3.273438 -4.320312 3.109375 -4.375 C 2.992188 -4.40625 2.785156 -4.421875 2.484375 -4.421875 L 1.203125 -4.421875 Z M 1.203125 -2.625 "/>
</g>
<g id="glyph-5-0">
<path d="M 0.78125 0 L 0.78125 -7.734375 L 3.296875 -7.734375 C 4.242188 -7.734375 4.859375 -7.691406 5.140625 -7.609375 C 5.585938 -7.492188 5.957031 -7.242188 6.25 -6.859375 C 6.550781 -6.472656 6.703125 -5.96875 6.703125 -5.34375 C 6.703125 -4.875 6.613281 -4.476562 6.4375 -4.15625 C 6.269531 -3.832031 6.050781 -3.578125 5.78125 -3.390625 C 5.519531 -3.203125 5.253906 -3.082031 4.984375 -3.03125 C 4.609375 -2.957031 4.066406 -2.921875 3.359375 -2.921875 L 2.34375 -2.921875 L 2.34375 0 Z M 2.34375 -6.421875 L 2.34375 -4.234375 L 3.203125 -4.234375 C 3.816406 -4.234375 4.226562 -4.269531 4.4375 -4.34375 C 4.644531 -4.425781 4.804688 -4.550781 4.921875 -4.71875 C 5.035156 -4.894531 5.09375 -5.097656 5.09375 -5.328125 C 5.09375 -5.609375 5.007812 -5.835938 4.84375 -6.015625 C 4.6875 -6.203125 4.476562 -6.320312 4.21875 -6.375 C 4.03125 -6.40625 3.65625 -6.421875 3.09375 -6.421875 Z M 2.34375 -6.421875 "/>
</g>
<g id="glyph-5-1">
<path d="M 2.25 -7.734375 L 2.25 -4.890625 C 2.726562 -5.441406 3.300781 -5.71875 3.96875 -5.71875 C 4.300781 -5.71875 4.601562 -5.65625 4.875 -5.53125 C 5.15625 -5.40625 5.363281 -5.242188 5.5 -5.046875 C 5.644531 -4.847656 5.742188 -4.628906 5.796875 -4.390625 C 5.847656 -4.148438 5.875 -3.78125 5.875 -3.28125 L 5.875 0 L 4.390625 0 L 4.390625 -2.953125 C 4.390625 -3.546875 4.359375 -3.921875 4.296875 -4.078125 C 4.242188 -4.234375 4.144531 -4.359375 4 -4.453125 C 3.863281 -4.546875 3.6875 -4.59375 3.46875 -4.59375 C 3.21875 -4.59375 2.992188 -4.53125 2.796875 -4.40625 C 2.609375 -4.289062 2.46875 -4.113281 2.375 -3.875 C 2.289062 -3.632812 2.25 -3.273438 2.25 -2.796875 L 2.25 0 L 0.765625 0 L 0.765625 -7.734375 Z M 2.25 -7.734375 "/>
</g>
<g id="glyph-5-2">
<path d="M 0.078125 -5.59375 L 1.65625 -5.59375 L 2.984375 -1.625 L 4.296875 -5.59375 L 5.828125 -5.59375 L 3.859375 -0.203125 L 3.5 0.765625 C 3.375 1.085938 3.25 1.332031 3.125 1.5 C 3.007812 1.675781 2.875 1.816406 2.71875 1.921875 C 2.570312 2.035156 2.382812 2.117188 2.15625 2.171875 C 1.9375 2.234375 1.6875 2.265625 1.40625 2.265625 C 1.113281 2.265625 0.832031 2.238281 0.5625 2.1875 L 0.4375 1.015625 C 0.664062 1.066406 0.875 1.09375 1.0625 1.09375 C 1.40625 1.09375 1.660156 0.988281 1.828125 0.78125 C 1.992188 0.582031 2.117188 0.328125 2.203125 0.015625 Z M 0.078125 -5.59375 "/>
</g>
<g id="glyph-5-3">
<path d="M 0.78125 0 L 0.78125 -7.734375 L 2.25 -7.734375 L 2.25 0 Z M 0.78125 0 "/>
</g>
<g id="glyph-5-4">
<path d="M 4.453125 0 L 4.453125 -0.84375 C 4.253906 -0.539062 3.988281 -0.300781 3.65625 -0.125 C 3.320312 0.0390625 2.972656 0.125 2.609375 0.125 C 2.234375 0.125 1.894531 0.0390625 1.59375 -0.125 C 1.289062 -0.289062 1.070312 -0.519531 0.9375 -0.8125 C 0.8125 -1.113281 0.75 -1.53125 0.75 -2.0625 L 0.75 -5.59375 L 2.21875 -5.59375 L 2.21875 -3.03125 C 2.21875 -2.238281 2.242188 -1.753906 2.296875 -1.578125 C 2.359375 -1.398438 2.460938 -1.257812 2.609375 -1.15625 C 2.753906 -1.050781 2.9375 -1 3.15625 -1 C 3.40625 -1 3.628906 -1.066406 3.828125 -1.203125 C 4.035156 -1.347656 4.175781 -1.519531 4.25 -1.71875 C 4.320312 -1.925781 4.359375 -2.429688 4.359375 -3.234375 L 4.359375 -5.59375 L 5.84375 -5.59375 L 5.84375 0 Z M 4.453125 0 "/>
</g>
<g id="glyph-5-5">
<path d="M 0.671875 -5.59375 L 2.03125 -5.59375 L 2.03125 -4.828125 C 2.519531 -5.421875 3.101562 -5.71875 3.78125 -5.71875 C 4.132812 -5.71875 4.441406 -5.644531 4.703125 -5.5 C 4.972656 -5.351562 5.191406 -5.128906 5.359375 -4.828125 C 5.597656 -5.128906 5.859375 -5.351562 6.140625 -5.5 C 6.429688 -5.644531 6.738281 -5.71875 7.0625 -5.71875 C 7.476562 -5.71875 7.828125 -5.632812 8.109375 -5.46875 C 8.390625 -5.300781 8.601562 -5.054688 8.75 -4.734375 C 8.851562 -4.492188 8.90625 -4.109375 8.90625 -3.578125 L 8.90625 0 L 7.421875 0 L 7.421875 -3.203125 C 7.421875 -3.753906 7.367188 -4.113281 7.265625 -4.28125 C 7.128906 -4.488281 6.914062 -4.59375 6.625 -4.59375 C 6.425781 -4.59375 6.234375 -4.53125 6.046875 -4.40625 C 5.859375 -4.28125 5.722656 -4.09375 5.640625 -3.84375 C 5.566406 -3.601562 5.53125 -3.21875 5.53125 -2.6875 L 5.53125 0 L 4.046875 0 L 4.046875 -3.0625 C 4.046875 -3.613281 4.019531 -3.96875 3.96875 -4.125 C 3.914062 -4.28125 3.832031 -4.394531 3.71875 -4.46875 C 3.613281 -4.550781 3.46875 -4.59375 3.28125 -4.59375 C 3.050781 -4.59375 2.84375 -4.53125 2.65625 -4.40625 C 2.476562 -4.28125 2.347656 -4.101562 2.265625 -3.875 C 2.179688 -3.644531 2.140625 -3.257812 2.140625 -2.71875 L 2.140625 0 L 0.671875 0 Z M 0.671875 -5.59375 "/>
</g>
<g id="glyph-5-6">
</g>
<g id="glyph-5-7">
<path d="M 4.015625 -1.78125 L 5.5 -1.53125 C 5.300781 -0.988281 5 -0.578125 4.59375 -0.296875 C 4.1875 -0.015625 3.675781 0.125 3.0625 0.125 C 2.082031 0.125 1.359375 -0.191406 0.890625 -0.828125 C 0.523438 -1.335938 0.34375 -1.976562 0.34375 -2.75 C 0.34375 -3.6875 0.582031 -4.414062 1.0625 -4.9375 C 1.550781 -5.457031 2.164062 -5.71875 2.90625 -5.71875 C 3.738281 -5.71875 4.394531 -5.441406 4.875 -4.890625 C 5.363281 -4.347656 5.597656 -3.507812 5.578125 -2.375 L 1.859375 -2.375 C 1.867188 -1.9375 1.988281 -1.59375 2.21875 -1.34375 C 2.445312 -1.101562 2.734375 -0.984375 3.078125 -0.984375 C 3.304688 -0.984375 3.5 -1.046875 3.65625 -1.171875 C 3.8125 -1.296875 3.929688 -1.5 4.015625 -1.78125 Z M 4.09375 -3.28125 C 4.082031 -3.707031 3.972656 -4.03125 3.765625 -4.25 C 3.554688 -4.476562 3.300781 -4.59375 3 -4.59375 C 2.675781 -4.59375 2.410156 -4.472656 2.203125 -4.234375 C 1.984375 -4.003906 1.878906 -3.6875 1.890625 -3.28125 Z M 4.09375 -3.28125 "/>
</g>
<g id="glyph-5-8">
<path d="M 1.875 -3.890625 L 0.53125 -4.140625 C 0.6875 -4.671875 0.945312 -5.066406 1.3125 -5.328125 C 1.6875 -5.585938 2.238281 -5.71875 2.96875 -5.71875 C 3.625 -5.71875 4.113281 -5.640625 4.4375 -5.484375 C 4.757812 -5.328125 4.984375 -5.128906 5.109375 -4.890625 C 5.242188 -4.648438 5.3125 -4.207031 5.3125 -3.5625 L 5.296875 -1.84375 C 5.296875 -1.351562 5.320312 -0.988281 5.375 -0.75 C 5.425781 -0.519531 5.515625 -0.269531 5.640625 0 L 4.171875 0 C 4.140625 -0.09375 4.09375 -0.238281 4.03125 -0.4375 C 4.007812 -0.519531 3.992188 -0.578125 3.984375 -0.609375 C 3.722656 -0.367188 3.445312 -0.1875 3.15625 -0.0625 C 2.875 0.0625 2.570312 0.125 2.25 0.125 C 1.664062 0.125 1.207031 -0.03125 0.875 -0.34375 C 0.550781 -0.65625 0.390625 -1.050781 0.390625 -1.53125 C 0.390625 -1.84375 0.460938 -2.125 0.609375 -2.375 C 0.765625 -2.625 0.976562 -2.8125 1.25 -2.9375 C 1.519531 -3.070312 1.910156 -3.191406 2.421875 -3.296875 C 3.117188 -3.421875 3.597656 -3.539062 3.859375 -3.65625 L 3.859375 -3.796875 C 3.859375 -4.085938 3.785156 -4.289062 3.640625 -4.40625 C 3.503906 -4.53125 3.242188 -4.59375 2.859375 -4.59375 C 2.597656 -4.59375 2.390625 -4.539062 2.234375 -4.4375 C 2.085938 -4.332031 1.96875 -4.148438 1.875 -3.890625 Z M 3.859375 -2.6875 C 3.671875 -2.625 3.367188 -2.546875 2.953125 -2.453125 C 2.546875 -2.367188 2.28125 -2.285156 2.15625 -2.203125 C 1.957031 -2.066406 1.859375 -1.894531 1.859375 -1.6875 C 1.859375 -1.476562 1.9375 -1.296875 2.09375 -1.140625 C 2.25 -0.992188 2.445312 -0.921875 2.6875 -0.921875 C 2.957031 -0.921875 3.210938 -1.007812 3.453125 -1.1875 C 3.628906 -1.3125 3.75 -1.472656 3.8125 -1.671875 C 3.84375 -1.796875 3.859375 -2.035156 3.859375 -2.390625 Z M 3.859375 -2.6875 "/>
</g>
<g id="glyph-5-9">
<path d="M 5.875 0 L 4.390625 0 L 4.390625 -2.859375 C 4.390625 -3.460938 4.359375 -3.851562 4.296875 -4.03125 C 4.234375 -4.207031 4.128906 -4.34375 3.984375 -4.4375 C 3.835938 -4.539062 3.664062 -4.59375 3.46875 -4.59375 C 3.207031 -4.59375 2.972656 -4.519531 2.765625 -4.375 C 2.566406 -4.238281 2.429688 -4.050781 2.359375 -3.8125 C 2.285156 -3.582031 2.25 -3.15625 2.25 -2.53125 L 2.25 0 L 0.765625 0 L 0.765625 -5.59375 L 2.140625 -5.59375 L 2.140625 -4.78125 C 2.628906 -5.40625 3.242188 -5.71875 3.984375 -5.71875 C 4.304688 -5.71875 4.601562 -5.660156 4.875 -5.546875 C 5.144531 -5.429688 5.347656 -5.28125 5.484375 -5.09375 C 5.628906 -4.914062 5.726562 -4.707031 5.78125 -4.46875 C 5.84375 -4.238281 5.875 -3.910156 5.875 -3.484375 Z M 5.875 0 "/>
</g>
<g id="glyph-5-10">
<path d="M 5.65625 -3.9375 L 4.203125 -3.6875 C 4.148438 -3.976562 4.035156 -4.195312 3.859375 -4.34375 C 3.679688 -4.488281 3.457031 -4.5625 3.1875 -4.5625 C 2.8125 -4.5625 2.515625 -4.429688 2.296875 -4.171875 C 2.078125 -3.921875 1.96875 -3.5 1.96875 -2.90625 C 1.96875 -2.238281 2.078125 -1.765625 2.296875 -1.484375 C 2.523438 -1.210938 2.828125 -1.078125 3.203125 -1.078125 C 3.484375 -1.078125 3.710938 -1.15625 3.890625 -1.3125 C 4.078125 -1.476562 4.207031 -1.753906 4.28125 -2.140625 L 5.734375 -1.890625 C 5.578125 -1.222656 5.285156 -0.71875 4.859375 -0.375 C 4.429688 -0.0390625 3.859375 0.125 3.140625 0.125 C 2.316406 0.125 1.660156 -0.128906 1.171875 -0.640625 C 0.691406 -1.160156 0.453125 -1.878906 0.453125 -2.796875 C 0.453125 -3.722656 0.691406 -4.441406 1.171875 -4.953125 C 1.660156 -5.460938 2.320312 -5.71875 3.15625 -5.71875 C 3.84375 -5.71875 4.382812 -5.570312 4.78125 -5.28125 C 5.1875 -4.988281 5.476562 -4.539062 5.65625 -3.9375 Z M 5.65625 -3.9375 "/>
</g>
<g id="glyph-5-11">
<path d="M 0.4375 -2.875 C 0.4375 -3.363281 0.554688 -3.835938 0.796875 -4.296875 C 1.035156 -4.765625 1.378906 -5.117188 1.828125 -5.359375 C 2.273438 -5.597656 2.769531 -5.71875 3.3125 -5.71875 C 4.164062 -5.71875 4.859375 -5.441406 5.390625 -4.890625 C 5.929688 -4.347656 6.203125 -3.65625 6.203125 -2.8125 C 6.203125 -1.96875 5.929688 -1.265625 5.390625 -0.703125 C 4.847656 -0.148438 4.160156 0.125 3.328125 0.125 C 2.816406 0.125 2.328125 0.0078125 1.859375 -0.21875 C 1.390625 -0.445312 1.035156 -0.785156 0.796875 -1.234375 C 0.554688 -1.679688 0.4375 -2.226562 0.4375 -2.875 Z M 1.953125 -2.796875 C 1.953125 -2.242188 2.082031 -1.816406 2.34375 -1.515625 C 2.601562 -1.222656 2.929688 -1.078125 3.328125 -1.078125 C 3.710938 -1.078125 4.035156 -1.222656 4.296875 -1.515625 C 4.554688 -1.816406 4.6875 -2.25 4.6875 -2.8125 C 4.6875 -3.351562 4.554688 -3.769531 4.296875 -4.0625 C 4.035156 -4.363281 3.710938 -4.515625 3.328125 -4.515625 C 2.929688 -4.515625 2.601562 -4.363281 2.34375 -4.0625 C 2.082031 -3.769531 1.953125 -3.347656 1.953125 -2.796875 Z M 1.953125 -2.796875 "/>
</g>
<g id="glyph-5-12">
<path d="M 0.734375 -5.59375 L 2.109375 -5.59375 L 2.109375 -4.78125 C 2.296875 -5.0625 2.539062 -5.285156 2.84375 -5.453125 C 3.144531 -5.628906 3.484375 -5.71875 3.859375 -5.71875 C 4.503906 -5.71875 5.050781 -5.460938 5.5 -4.953125 C 5.957031 -4.453125 6.1875 -3.742188 6.1875 -2.828125 C 6.1875 -1.890625 5.957031 -1.160156 5.5 -0.640625 C 5.050781 -0.128906 4.5 0.125 3.84375 0.125 C 3.539062 0.125 3.257812 0.0625 3 -0.0625 C 2.75 -0.1875 2.488281 -0.394531 2.21875 -0.6875 L 2.21875 2.125 L 0.734375 2.125 Z M 2.203125 -2.890625 C 2.203125 -2.265625 2.328125 -1.800781 2.578125 -1.5 C 2.828125 -1.195312 3.128906 -1.046875 3.484375 -1.046875 C 3.828125 -1.046875 4.113281 -1.179688 4.34375 -1.453125 C 4.570312 -1.734375 4.6875 -2.191406 4.6875 -2.828125 C 4.6875 -3.410156 4.566406 -3.84375 4.328125 -4.125 C 4.097656 -4.414062 3.804688 -4.5625 3.453125 -4.5625 C 3.097656 -4.5625 2.800781 -4.421875 2.5625 -4.140625 C 2.320312 -3.859375 2.203125 -3.441406 2.203125 -2.890625 Z M 2.203125 -2.890625 "/>
</g>
<g id="glyph-5-13">
<path d="M 0.25 -1.59375 L 1.734375 -1.828125 C 1.796875 -1.535156 1.925781 -1.3125 2.125 -1.15625 C 2.320312 -1.007812 2.59375 -0.9375 2.9375 -0.9375 C 3.320312 -0.9375 3.609375 -1.007812 3.796875 -1.15625 C 3.929688 -1.25 4 -1.378906 4 -1.546875 C 4 -1.660156 3.960938 -1.753906 3.890625 -1.828125 C 3.816406 -1.898438 3.648438 -1.96875 3.390625 -2.03125 C 2.203125 -2.289062 1.445312 -2.53125 1.125 -2.75 C 0.675781 -3.050781 0.453125 -3.46875 0.453125 -4 C 0.453125 -4.488281 0.644531 -4.894531 1.03125 -5.21875 C 1.414062 -5.550781 2.007812 -5.71875 2.8125 -5.71875 C 3.582031 -5.71875 4.148438 -5.59375 4.515625 -5.34375 C 4.890625 -5.101562 5.148438 -4.738281 5.296875 -4.25 L 3.890625 -3.984375 C 3.835938 -4.203125 3.726562 -4.367188 3.5625 -4.484375 C 3.394531 -4.597656 3.15625 -4.65625 2.84375 -4.65625 C 2.445312 -4.65625 2.164062 -4.601562 2 -4.5 C 1.882812 -4.414062 1.828125 -4.316406 1.828125 -4.203125 C 1.828125 -4.085938 1.878906 -3.992188 1.984375 -3.921875 C 2.117188 -3.828125 2.578125 -3.691406 3.359375 -3.515625 C 4.148438 -3.335938 4.703125 -3.117188 5.015625 -2.859375 C 5.328125 -2.585938 5.484375 -2.21875 5.484375 -1.75 C 5.484375 -1.238281 5.269531 -0.796875 4.84375 -0.421875 C 4.414062 -0.0546875 3.78125 0.125 2.9375 0.125 C 2.175781 0.125 1.570312 -0.0234375 1.125 -0.328125 C 0.675781 -0.640625 0.382812 -1.0625 0.25 -1.59375 Z M 0.25 -1.59375 "/>
</g>
<g id="glyph-5-14">
<path d="M 0.78125 -6.359375 L 0.78125 -7.734375 L 2.25 -7.734375 L 2.25 -6.359375 Z M 0.78125 0 L 0.78125 -5.59375 L 2.25 -5.59375 L 2.25 0 Z M 0.78125 0 "/>
</g>
<g id="glyph-5-15">
<path d="M 3.34375 -5.59375 L 3.34375 -4.421875 L 2.328125 -4.421875 L 2.328125 -2.15625 C 2.328125 -1.695312 2.335938 -1.429688 2.359375 -1.359375 C 2.378906 -1.285156 2.421875 -1.222656 2.484375 -1.171875 C 2.554688 -1.128906 2.640625 -1.109375 2.734375 -1.109375 C 2.878906 -1.109375 3.082031 -1.15625 3.34375 -1.25 L 3.46875 -0.09375 C 3.125 0.0507812 2.734375 0.125 2.296875 0.125 C 2.023438 0.125 1.78125 0.0820312 1.5625 0 C 1.351562 -0.09375 1.195312 -0.207031 1.09375 -0.34375 C 1 -0.488281 0.929688 -0.6875 0.890625 -0.9375 C 0.859375 -1.101562 0.84375 -1.453125 0.84375 -1.984375 L 0.84375 -4.421875 L 0.15625 -4.421875 L 0.15625 -5.59375 L 0.84375 -5.59375 L 0.84375 -6.71875 L 2.328125 -7.578125 L 2.328125 -5.59375 Z M 3.34375 -5.59375 "/>
</g>
<g id="glyph-5-16">
<path d="M 1.0625 -4.125 L 1.0625 -5.59375 L 2.546875 -5.59375 L 2.546875 -4.125 Z M 1.0625 0 L 1.0625 -1.484375 L 2.546875 -1.484375 L 2.546875 0 Z M 1.0625 0 "/>
</g>
<g id="glyph-5-17">
<path d="M 5.734375 -2.84375 L 7.25 -2.359375 C 7.007812 -1.515625 6.617188 -0.890625 6.078125 -0.484375 C 5.546875 -0.078125 4.863281 0.125 4.03125 0.125 C 3.007812 0.125 2.164062 -0.222656 1.5 -0.921875 C 0.84375 -1.617188 0.515625 -2.578125 0.515625 -3.796875 C 0.515625 -5.078125 0.84375 -6.070312 1.5 -6.78125 C 2.164062 -7.5 3.039062 -7.859375 4.125 -7.859375 C 5.070312 -7.859375 5.84375 -7.578125 6.4375 -7.015625 C 6.78125 -6.691406 7.039062 -6.21875 7.21875 -5.59375 L 5.671875 -5.234375 C 5.585938 -5.628906 5.398438 -5.941406 5.109375 -6.171875 C 4.816406 -6.410156 4.460938 -6.53125 4.046875 -6.53125 C 3.472656 -6.53125 3.007812 -6.320312 2.65625 -5.90625 C 2.300781 -5.5 2.125 -4.832031 2.125 -3.90625 C 2.125 -2.9375 2.296875 -2.242188 2.640625 -1.828125 C 2.992188 -1.410156 3.453125 -1.203125 4.015625 -1.203125 C 4.429688 -1.203125 4.785156 -1.332031 5.078125 -1.59375 C 5.378906 -1.863281 5.597656 -2.28125 5.734375 -2.84375 Z M 5.734375 -2.84375 "/>
</g>
<g id="glyph-5-18">
<path d="M 2.1875 0 L 0.71875 0 L 0.71875 -5.59375 L 2.09375 -5.59375 L 2.09375 -4.796875 C 2.320312 -5.171875 2.53125 -5.414062 2.71875 -5.53125 C 2.90625 -5.65625 3.117188 -5.71875 3.359375 -5.71875 C 3.703125 -5.71875 4.03125 -5.628906 4.34375 -5.453125 L 3.875 -4.15625 C 3.625 -4.3125 3.394531 -4.390625 3.1875 -4.390625 C 2.976562 -4.390625 2.800781 -4.332031 2.65625 -4.21875 C 2.507812 -4.101562 2.394531 -3.894531 2.3125 -3.59375 C 2.226562 -3.300781 2.1875 -2.679688 2.1875 -1.734375 Z M 2.1875 0 "/>
</g>
<g id="glyph-5-19">
<path d="M 0.734375 -1.484375 L 2.21875 -1.484375 L 2.21875 -0.421875 C 2.21875 0.00390625 2.179688 0.34375 2.109375 0.59375 C 2.035156 0.84375 1.894531 1.066406 1.6875 1.265625 C 1.476562 1.460938 1.21875 1.613281 0.90625 1.71875 L 0.609375 1.109375 C 0.910156 1.015625 1.125 0.878906 1.25 0.703125 C 1.375 0.535156 1.441406 0.300781 1.453125 0 L 0.734375 0 Z M 0.734375 -1.484375 "/>
</g>
<g id="glyph-5-20">
<path d="M 0.796875 0 L 0.796875 -7.734375 L 2.34375 -7.734375 L 2.34375 -4.6875 L 5.40625 -4.6875 L 5.40625 -7.734375 L 6.96875 -7.734375 L 6.96875 0 L 5.40625 0 L 5.40625 -3.375 L 2.34375 -3.375 L 2.34375 0 Z M 0.796875 0 "/>
</g>
<g id="glyph-5-21">
<path d="M 5.90625 0 L 4.53125 0 L 4.53125 -0.828125 C 4.300781 -0.503906 4.03125 -0.265625 3.71875 -0.109375 C 3.414062 0.046875 3.101562 0.125 2.78125 0.125 C 2.132812 0.125 1.582031 -0.128906 1.125 -0.640625 C 0.664062 -1.160156 0.4375 -1.890625 0.4375 -2.828125 C 0.4375 -3.773438 0.660156 -4.492188 1.109375 -4.984375 C 1.554688 -5.472656 2.117188 -5.71875 2.796875 -5.71875 C 3.429688 -5.71875 3.972656 -5.457031 4.421875 -4.9375 L 4.421875 -7.734375 L 5.90625 -7.734375 Z M 1.953125 -2.921875 C 1.953125 -2.328125 2.035156 -1.894531 2.203125 -1.625 C 2.441406 -1.238281 2.773438 -1.046875 3.203125 -1.046875 C 3.546875 -1.046875 3.835938 -1.1875 4.078125 -1.46875 C 4.316406 -1.757812 4.4375 -2.195312 4.4375 -2.78125 C 4.4375 -3.425781 4.316406 -3.890625 4.078125 -4.171875 C 3.847656 -4.453125 3.550781 -4.59375 3.1875 -4.59375 C 2.84375 -4.59375 2.550781 -4.453125 2.3125 -4.171875 C 2.070312 -3.890625 1.953125 -3.472656 1.953125 -2.921875 Z M 1.953125 -2.921875 "/>
</g>
<g id="glyph-5-22">
<path d="M 0.796875 0 L 0.796875 -7.734375 L 6.09375 -7.734375 L 6.09375 -6.421875 L 2.359375 -6.421875 L 2.359375 -4.59375 L 5.578125 -4.59375 L 5.578125 -3.28125 L 2.359375 -3.28125 L 2.359375 0 Z M 0.796875 0 "/>
</g>
</g>
<clipPath id="clip-0">
<path clip-rule="nonzero" d="M 37.757812 19.964844 L 378.820312 19.964844 L 378.820312 375.246094 L 37.757812 375.246094 Z M 37.757812 19.964844 "/>
</clipPath>
<clipPath id="clip-1">
<path clip-rule="nonzero" d="M 37.757812 375 L 378.820312 375 L 378.820312 375.246094 L 37.757812 375.246094 Z M 37.757812 375 "/>
</clipPath>
<clipPath id="clip-2">
<path clip-rule="nonzero" d="M 37.757812 287 L 378.820312 287 L 378.820312 288 L 37.757812 288 Z M 37.757812 287 "/>
</clipPath>
<clipPath id="clip-3">
<path clip-rule="nonzero" d="M 37.757812 199 L 378.820312 199 L 378.820312 200 L 37.757812 200 Z M 37.757812 199 "/>
</clipPath>
<clipPath id="clip-4">
<path clip-rule="nonzero" d="M 37.757812 111 L 378.820312 111 L 378.820312 112 L 37.757812 112 Z M 37.757812 111 "/>
</clipPath>
<clipPath id="clip-5">
<path clip-rule="nonzero" d="M 37.757812 23 L 378.820312 23 L 378.820312 24 L 37.757812 24 Z M 37.757812 23 "/>
</clipPath>
<clipPath id="clip-6">
<path clip-rule="nonzero" d="M 101 19.964844 L 102 19.964844 L 102 375.246094 L 101 375.246094 Z M 101 19.964844 "/>
</clipPath>
<clipPath id="clip-7">
<path clip-rule="nonzero" d="M 208 19.964844 L 209 19.964844 L 209 375.246094 L 208 375.246094 Z M 208 19.964844 "/>
</clipPath>
<clipPath id="clip-8">
<path clip-rule="nonzero" d="M 314 19.964844 L 316 19.964844 L 316 375.246094 L 314 375.246094 Z M 314 19.964844 "/>
</clipPath>
<clipPath id="clip-9">
<path clip-rule="nonzero" d="M 63 144 L 141 144 L 141 375.246094 L 63 375.246094 Z M 63 144 "/>
</clipPath>
<clipPath id="clip-10">
<path clip-rule="nonzero" d="M 276 215 L 354 215 L 354 375.246094 L 276 375.246094 Z M 276 215 "/>
</clipPath>
<clipPath id="clip-11">
<path clip-rule="nonzero" d="M 169 138 L 247 138 L 247 375.246094 L 169 375.246094 Z M 169 138 "/>
</clipPath>
<clipPath id="clip-12">
<path clip-rule="nonzero" d="M 37.757812 19.964844 L 378.820312 19.964844 L 378.820312 375.246094 L 37.757812 375.246094 Z M 37.757812 19.964844 "/>
</clipPath>
</defs>
<rect x="-48.2" y="-41.7" width="578.4" height="500.4" fill="rgb(100%, 100%, 100%)" fill-opacity="1"/>
<rect x="-48.2" y="-41.7" width="578.4" height="500.4" fill="rgb(100%, 100%, 100%)" fill-opacity="1"/>
<path fill="none" stroke-width="0.872982" stroke-linecap="round" stroke-linejoin="round" stroke="rgb(100%, 100%, 100%)" stroke-opacity="1" stroke-miterlimit="10" d="M 0 417 L 482 417 L 482 0 L 0 0 Z M 0 417 "/>
<g clip-path="url(#clip-0)">
<path fill-rule="nonzero" fill="rgb(100%, 100%, 100%)" fill-opacity="1" d="M 37.757812 375.246094 L 378.820312 375.246094 L 378.820312 19.964844 L 37.757812 19.964844 Z M 37.757812 375.246094 "/>
</g>
<g clip-path="url(#clip-1)">
<path fill="none" stroke-width="0.384112" stroke-linecap="butt" stroke-linejoin="round" stroke="rgb(87.843137%, 87.843137%, 87.843137%)" stroke-opacity="1" stroke-miterlimit="10" d="M 37.757812 375.246094 L 378.820312 375.246094 "/>
</g>
<g clip-path="url(#clip-2)">
<path fill="none" stroke-width="0.384112" stroke-linecap="butt" stroke-linejoin="round" stroke="rgb(87.843137%, 87.843137%, 87.843137%)" stroke-opacity="1" stroke-miterlimit="10" d="M 37.757812 287.308594 L 378.820312 287.308594 "/>
</g>
<g clip-path="url(#clip-3)">
<path fill="none" stroke-width="0.384112" stroke-linecap="butt" stroke-linejoin="round" stroke="rgb(87.843137%, 87.843137%, 87.843137%)" stroke-opacity="1" stroke-miterlimit="10" d="M 37.757812 199.367188 L 378.820312 199.367188 "/>
</g>
<g clip-path="url(#clip-4)">
<path fill="none" stroke-width="0.384112" stroke-linecap="butt" stroke-linejoin="round" stroke="rgb(87.843137%, 87.843137%, 87.843137%)" stroke-opacity="1" stroke-miterlimit="10" d="M 37.757812 111.425781 L 378.820312 111.425781 "/>
</g>
<g clip-path="url(#clip-5)">
<path fill="none" stroke-width="0.384112" stroke-linecap="butt" stroke-linejoin="round" stroke="rgb(87.843137%, 87.843137%, 87.843137%)" stroke-opacity="1" stroke-miterlimit="10" d="M 37.757812 23.484375 L 378.820312 23.484375 "/>
</g>
<g clip-path="url(#clip-6)">
<path fill="none" stroke-width="0.384112" stroke-linecap="butt" stroke-linejoin="round" stroke="rgb(87.843137%, 87.843137%, 87.843137%)" stroke-opacity="1" stroke-miterlimit="10" d="M 101.707031 375.246094 L 101.707031 19.964844 "/>
</g>
<g clip-path="url(#clip-7)">
<path fill="none" stroke-width="0.384112" stroke-linecap="butt" stroke-linejoin="round" stroke="rgb(87.843137%, 87.843137%, 87.843137%)" stroke-opacity="1" stroke-miterlimit="10" d="M 208.289062 375.246094 L 208.289062 19.964844 "/>
</g>
<g clip-path="url(#clip-8)">
<path fill="none" stroke-width="0.384112" stroke-linecap="butt" stroke-linejoin="round" stroke="rgb(87.843137%, 87.843137%, 87.843137%)" stroke-opacity="1" stroke-miterlimit="10" d="M 314.871094 375.246094 L 314.871094 19.964844 "/>
</g>
<g clip-path="url(#clip-9)">
<path fill-rule="nonzero" fill="rgb(65.098039%, 80.784314%, 89.019608%)" fill-opacity="1" d="M 63.339844 375.246094 L 140.078125 375.246094 L 140.078125 144.3125 L 63.339844 144.3125 Z M 63.339844 375.246094 "/>
</g>
<path fill-rule="nonzero" fill="rgb(12.156863%, 47.058824%, 70.588235%)" fill-opacity="1" d="M 63.339844 144.316406 L 140.078125 144.316406 L 140.078125 57.011719 L 63.339844 57.011719 Z M 63.339844 144.316406 "/>
<path fill-rule="nonzero" fill="rgb(69.803922%, 87.45098%, 54.117647%)" fill-opacity="1" d="M 63.339844 57.011719 L 140.078125 57.011719 L 140.078125 32.132812 L 63.339844 32.132812 Z M 63.339844 57.011719 "/>
<path fill-rule="nonzero" fill="rgb(20%, 62.745098%, 17.254902%)" fill-opacity="1" d="M 63.339844 32.132812 L 140.078125 32.132812 L 140.078125 26.332031 L 63.339844 26.332031 Z M 63.339844 32.132812 "/>
<path fill-rule="nonzero" fill="rgb(98.431373%, 60.392157%, 60%)" fill-opacity="1" d="M 63.339844 26.332031 L 140.078125 26.332031 L 140.078125 25.675781 L 63.339844 25.675781 Z M 63.339844 26.332031 "/>
<path fill-rule="nonzero" fill="rgb(89.019608%, 10.196078%, 10.980392%)" fill-opacity="1" d="M 63.339844 25.675781 L 140.078125 25.675781 L 140.078125 23.609375 L 63.339844 23.609375 Z M 63.339844 25.675781 "/>
<path fill-rule="nonzero" fill="rgb(99.215686%, 74.901961%, 43.529412%)" fill-opacity="1" d="M 63.339844 23.609375 L 140.078125 23.609375 L 140.078125 23.519531 L 63.339844 23.519531 Z M 63.339844 23.609375 "/>
<path fill-rule="nonzero" fill="rgb(100%, 49.803922%, 0%)" fill-opacity="1" d="M 63.339844 23.523438 L 140.078125 23.523438 L 140.078125 23.484375 L 63.339844 23.484375 Z M 63.339844 23.523438 "/>
<g clip-path="url(#clip-10)">
<path fill-rule="nonzero" fill="rgb(65.098039%, 80.784314%, 89.019608%)" fill-opacity="1" d="M 276.503906 375.246094 L 353.242188 375.246094 L 353.242188 215.78125 L 276.503906 215.78125 Z M 276.503906 375.246094 "/>
</g>
<path fill-rule="nonzero" fill="rgb(12.156863%, 47.058824%, 70.588235%)" fill-opacity="1" d="M 276.503906 215.785156 L 353.242188 215.785156 L 353.242188 158.671875 L 276.503906 158.671875 Z M 276.503906 215.785156 "/>
<path fill-rule="nonzero" fill="rgb(98.431373%, 60.392157%, 60%)" fill-opacity="1" d="M 276.503906 158.671875 L 353.242188 158.671875 L 353.242188 23.484375 L 276.503906 23.484375 Z M 276.503906 158.671875 "/>
<g clip-path="url(#clip-11)">
<path fill-rule="nonzero" fill="rgb(65.098039%, 80.784314%, 89.019608%)" fill-opacity="1" d="M 169.921875 375.246094 L 246.660156 375.246094 L 246.660156 138.238281 L 169.921875 138.238281 Z M 169.921875 375.246094 "/>
</g>
<path fill-rule="nonzero" fill="rgb(12.156863%, 47.058824%, 70.588235%)" fill-opacity="1" d="M 169.921875 138.238281 L 246.660156 138.238281 L 246.660156 37.113281 L 169.921875 37.113281 Z M 169.921875 138.238281 "/>
<path fill-rule="nonzero" fill="rgb(69.803922%, 87.45098%, 54.117647%)" fill-opacity="1" d="M 169.921875 37.117188 L 246.660156 37.117188 L 246.660156 28.96875 L 169.921875 28.96875 Z M 169.921875 37.117188 "/>
<path fill-rule="nonzero" fill="rgb(20%, 62.745098%, 17.254902%)" fill-opacity="1" d="M 169.921875 28.964844 L 246.660156 28.964844 L 246.660156 25.007812 L 169.921875 25.007812 Z M 169.921875 28.964844 "/>
<path fill-rule="nonzero" fill="rgb(98.431373%, 60.392157%, 60%)" fill-opacity="1" d="M 169.921875 25.011719 L 246.660156 25.011719 L 246.660156 24.417969 L 169.921875 24.417969 Z M 169.921875 25.011719 "/>
<path fill-rule="nonzero" fill="rgb(89.019608%, 10.196078%, 10.980392%)" fill-opacity="1" d="M 169.921875 24.414062 L 246.660156 24.414062 L 246.660156 23.585938 L 169.921875 23.585938 Z M 169.921875 24.414062 "/>
<path fill-rule="nonzero" fill="rgb(99.215686%, 74.901961%, 43.529412%)" fill-opacity="1" d="M 169.921875 23.589844 L 246.660156 23.589844 L 246.660156 23.535156 L 169.921875 23.535156 Z M 169.921875 23.589844 "/>
<path fill-rule="nonzero" fill="rgb(100%, 49.803922%, 0%)" fill-opacity="1" d="M 169.921875 23.535156 L 246.660156 23.535156 L 246.660156 23.484375 L 169.921875 23.484375 Z M 169.921875 23.535156 "/>
<g clip-path="url(#clip-12)">
<path fill="none" stroke-width="0.872982" stroke-linecap="round" stroke-linejoin="round" stroke="rgb(20%, 20%, 20%)" stroke-opacity="1" stroke-miterlimit="10" d="M 37.757812 375.246094 L 378.820312 375.246094 L 378.820312 19.964844 L 37.757812 19.964844 Z M 37.757812 375.246094 "/>
</g>
<g fill="rgb(14.901961%, 14.901961%, 14.901961%)" fill-opacity="1">
<use xlink:href="#glyph-0-0" x="23.726562" y="377.763672"/>
<use xlink:href="#glyph-0-1" x="27.726562" y="377.763672"/>
</g>
<g fill="rgb(14.901961%, 14.901961%, 14.901961%)" fill-opacity="1">
<use xlink:href="#glyph-0-2" x="19.726562" y="289.826172"/>
<use xlink:href="#glyph-0-3" x="23.726562" y="289.826172"/>
<use xlink:href="#glyph-0-1" x="27.726562" y="289.826172"/>
</g>
<g fill="rgb(14.901961%, 14.901961%, 14.901961%)" fill-opacity="1">
<use xlink:href="#glyph-0-3" x="19.726562" y="201.884766"/>
<use xlink:href="#glyph-0-0" x="23.726562" y="201.884766"/>
<use xlink:href="#glyph-0-1" x="27.726562" y="201.884766"/>
</g>
<g fill="rgb(14.901961%, 14.901961%, 14.901961%)" fill-opacity="1">
<use xlink:href="#glyph-0-4" x="19.726562" y="113.943359"/>
<use xlink:href="#glyph-0-3" x="23.726562" y="113.943359"/>
<use xlink:href="#glyph-0-1" x="27.726562" y="113.943359"/>
</g>
<g fill="rgb(14.901961%, 14.901961%, 14.901961%)" fill-opacity="1">
<use xlink:href="#glyph-0-5" x="15.726562" y="26.001953"/>
<use xlink:href="#glyph-0-0" x="19.726562" y="26.001953"/>
<use xlink:href="#glyph-0-0" x="23.726562" y="26.001953"/>
<use xlink:href="#glyph-0-1" x="27.726562" y="26.001953"/>
</g>
<path fill="none" stroke-width="0.872982" stroke-linecap="butt" stroke-linejoin="round" stroke="rgb(20%, 20%, 20%)" stroke-opacity="1" stroke-miterlimit="10" d="M 35.519531 375.246094 L 37.757812 375.246094 "/>
<path fill="none" stroke-width="0.872982" stroke-linecap="butt" stroke-linejoin="round" stroke="rgb(20%, 20%, 20%)" stroke-opacity="1" stroke-miterlimit="10" d="M 35.519531 287.308594 L 37.757812 287.308594 "/>
<path fill="none" stroke-width="0.872982" stroke-linecap="butt" stroke-linejoin="round" stroke="rgb(20%, 20%, 20%)" stroke-opacity="1" stroke-miterlimit="10" d="M 35.519531 199.367188 L 37.757812 199.367188 "/>
<path fill="none" stroke-width="0.872982" stroke-linecap="butt" stroke-linejoin="round" stroke="rgb(20%, 20%, 20%)" stroke-opacity="1" stroke-miterlimit="10" d="M 35.519531 111.425781 L 37.757812 111.425781 "/>
<path fill="none" stroke-width="0.872982" stroke-linecap="butt" stroke-linejoin="round" stroke="rgb(20%, 20%, 20%)" stroke-opacity="1" stroke-miterlimit="10" d="M 35.519531 23.484375 L 37.757812 23.484375 "/>
<path fill="none" stroke-width="0.872982" stroke-linecap="butt" stroke-linejoin="round" stroke="rgb(20%, 20%, 20%)" stroke-opacity="1" stroke-miterlimit="10" d="M 101.707031 377.488281 L 101.707031 375.246094 "/>
<path fill="none" stroke-width="0.872982" stroke-linecap="butt" stroke-linejoin="round" stroke="rgb(20%, 20%, 20%)" stroke-opacity="1" stroke-miterlimit="10" d="M 208.289062 377.488281 L 208.289062 375.246094 "/>
<path fill="none" stroke-width="0.872982" stroke-linecap="butt" stroke-linejoin="round" stroke="rgb(20%, 20%, 20%)" stroke-opacity="1" stroke-miterlimit="10" d="M 314.871094 377.488281 L 314.871094 375.246094 "/>
<g fill="rgb(14.901961%, 14.901961%, 14.901961%)" fill-opacity="1">
<use xlink:href="#glyph-1-0" x="97.835186" y="390.964092"/>
<use xlink:href="#glyph-1-1" x="101.37072" y="387.428559"/>
<use xlink:href="#glyph-1-2" x="102.784934" y="386.014345"/>
<use xlink:href="#glyph-1-3" x="104.199147" y="384.600131"/>
</g>
<g fill="rgb(14.901961%, 14.901961%, 14.901961%)" fill-opacity="1">
<use xlink:href="#glyph-1-4" x="184.61253" y="410.764874"/>
<use xlink:href="#glyph-1-5" x="188.148064" y="407.22934"/>
<use xlink:href="#glyph-1-6" x="190.976491" y="404.400913"/>
<use xlink:href="#glyph-1-2" x="193.804918" y="401.572486"/>
<use xlink:href="#glyph-1-7" x="195.219132" y="400.158272"/>
<use xlink:href="#glyph-1-3" x="198.047559" y="397.329845"/>
<use xlink:href="#glyph-1-5" x="199.461772" y="395.915631"/>
<use xlink:href="#glyph-1-8" x="202.290199" y="393.087204"/>
<use xlink:href="#glyph-1-9" x="205.118627" y="390.258777"/>
<use xlink:href="#glyph-1-1" x="207.947054" y="387.43035"/>
<use xlink:href="#glyph-1-10" x="209.361267" y="386.016136"/>
</g>
<g fill="rgb(14.901961%, 14.901961%, 14.901961%)" fill-opacity="1">
<use xlink:href="#glyph-1-11" x="307.460186" y="394.499249"/>
<use xlink:href="#glyph-1-10" x="310.288613" y="391.670822"/>
<use xlink:href="#glyph-1-10" x="313.11704" y="388.842394"/>
<use xlink:href="#glyph-1-6" x="315.945468" y="386.013967"/>
</g>
<g fill="rgb(0%, 0%, 0%)" fill-opacity="1">
<use xlink:href="#glyph-2-0" x="10.631836" y="249.105469"/>
<use xlink:href="#glyph-2-1" x="10.631836" y="242.105469"/>
<use xlink:href="#glyph-2-2" x="10.631836" y="237.105469"/>
<use xlink:href="#glyph-2-3" x="10.631836" y="232.105469"/>
<use xlink:href="#glyph-2-4" x="10.631836" y="227.105469"/>
<use xlink:href="#glyph-2-5" x="10.631836" y="224.105469"/>
<use xlink:href="#glyph-2-1" x="10.631836" y="221.105469"/>
<use xlink:href="#glyph-2-6" x="10.631836" y="216.105469"/>
<use xlink:href="#glyph-2-2" x="10.631836" y="214.105469"/>
<use xlink:href="#glyph-2-7" x="10.631836" y="209.105469"/>
<use xlink:href="#glyph-2-8" x="10.631836" y="206.105469"/>
<use xlink:href="#glyph-2-9" x="10.631836" y="204.105469"/>
<use xlink:href="#glyph-2-1" x="10.631836" y="199.105469"/>
<use xlink:href="#glyph-2-4" x="10.631836" y="194.105469"/>
<use xlink:href="#glyph-2-2" x="10.631836" y="191.105469"/>
<use xlink:href="#glyph-2-10" x="10.631836" y="186.105469"/>
<use xlink:href="#glyph-2-11" x="10.631836" y="181.105469"/>
<use xlink:href="#glyph-2-3" x="10.631836" y="176.105469"/>
<use xlink:href="#glyph-2-12" x="10.631836" y="171.105469"/>
<use xlink:href="#glyph-2-2" x="10.631836" y="166.105469"/>
<use xlink:href="#glyph-2-3" x="10.631836" y="161.105469"/>
<use xlink:href="#glyph-2-13" x="10.631836" y="156.105469"/>
<use xlink:href="#glyph-2-1" x="10.631836" y="151.105469"/>
</g>
<path fill-rule="nonzero" fill="rgb(100%, 100%, 100%)" fill-opacity="1" d="M 387.789062 277.453125 L 477.519531 277.453125 L 477.519531 117.761719 L 387.789062 117.761719 Z M 387.789062 277.453125 "/>
<g fill="rgb(0%, 0%, 0%)" fill-opacity="1">
<use xlink:href="#glyph-3-0" x="392.269531" y="128.488281"/>
<use xlink:href="#glyph-3-1" x="397.269531" y="128.488281"/>
<use xlink:href="#glyph-3-2" x="401.269531" y="128.488281"/>
<use xlink:href="#glyph-3-3" x="405.269531" y="128.488281"/>
<use xlink:href="#glyph-3-4" x="407.269531" y="128.488281"/>
<use xlink:href="#glyph-3-5" x="411.269531" y="128.488281"/>
</g>
<path fill-rule="nonzero" fill="rgb(100%, 49.803922%, 0%)" fill-opacity="1" d="M 392.851562 151.429688 L 408.972656 151.429688 L 408.972656 135.308594 L 392.851562 135.308594 Z M 392.851562 151.429688 "/>
<path fill-rule="nonzero" fill="rgb(99.215686%, 74.901961%, 43.529412%)" fill-opacity="1" d="M 392.851562 168.707031 L 408.972656 168.707031 L 408.972656 152.585938 L 392.851562 152.585938 Z M 392.851562 168.707031 "/>
<path fill-rule="nonzero" fill="rgb(89.019608%, 10.196078%, 10.980392%)" fill-opacity="1" d="M 392.851562 185.988281 L 408.972656 185.988281 L 408.972656 169.867188 L 392.851562 169.867188 Z M 392.851562 185.988281 "/>
<path fill-rule="nonzero" fill="rgb(98.431373%, 60.392157%, 60%)" fill-opacity="1" d="M 392.851562 203.269531 L 408.972656 203.269531 L 408.972656 187.148438 L 392.851562 187.148438 Z M 392.851562 203.269531 "/>
<path fill-rule="nonzero" fill="rgb(20%, 62.745098%, 17.254902%)" fill-opacity="1" d="M 392.851562 220.550781 L 408.972656 220.550781 L 408.972656 204.429688 L 392.851562 204.429688 Z M 392.851562 220.550781 "/>
<path fill-rule="nonzero" fill="rgb(69.803922%, 87.45098%, 54.117647%)" fill-opacity="1" d="M 392.851562 237.828125 L 408.972656 237.828125 L 408.972656 221.707031 L 392.851562 221.707031 Z M 392.851562 237.828125 "/>
<path fill-rule="nonzero" fill="rgb(12.156863%, 47.058824%, 70.588235%)" fill-opacity="1" d="M 392.851562 255.109375 L 408.972656 255.109375 L 408.972656 238.988281 L 392.851562 238.988281 Z M 392.851562 255.109375 "/>
<path fill-rule="nonzero" fill="rgb(65.098039%, 80.784314%, 89.019608%)" fill-opacity="1" d="M 392.851562 272.390625 L 408.972656 272.390625 L 408.972656 256.269531 L 392.851562 256.269531 Z M 392.851562 272.390625 "/>
<g fill="rgb(0%, 0%, 0%)" fill-opacity="1">
<use xlink:href="#glyph-4-0" x="414.035156" y="145.704102"/>
<use xlink:href="#glyph-4-1" x="419.035156" y="145.704102"/>
<use xlink:href="#glyph-4-2" x="423.035156" y="145.704102"/>
<use xlink:href="#glyph-4-3" x="429.035156" y="145.704102"/>
<use xlink:href="#glyph-4-4" x="433.035156" y="145.704102"/>
<use xlink:href="#glyph-4-5" x="437.035156" y="145.704102"/>
<use xlink:href="#glyph-4-6" x="439.035156" y="145.704102"/>
<use xlink:href="#glyph-4-7" x="443.035156" y="145.704102"/>
<use xlink:href="#glyph-4-1" x="447.035156" y="145.704102"/>
<use xlink:href="#glyph-4-8" x="451.035156" y="145.704102"/>
<use xlink:href="#glyph-4-9" x="455.035156" y="145.704102"/>
<use xlink:href="#glyph-4-10" x="457.035156" y="145.704102"/>
<use xlink:href="#glyph-4-11" x="461.035156" y="145.704102"/>
<use xlink:href="#glyph-4-6" x="463.035156" y="145.704102"/>
<use xlink:href="#glyph-4-9" x="467.035156" y="145.704102"/>
<use xlink:href="#glyph-4-1" x="469.035156" y="145.704102"/>
</g>
<g fill="rgb(0%, 0%, 0%)" fill-opacity="1">
<use xlink:href="#glyph-4-12" x="414.035156" y="162.985352"/>
<use xlink:href="#glyph-4-10" x="418.035156" y="162.985352"/>
<use xlink:href="#glyph-4-11" x="422.035156" y="162.985352"/>
<use xlink:href="#glyph-4-11" x="424.035156" y="162.985352"/>
<use xlink:href="#glyph-4-13" x="426.035156" y="162.985352"/>
<use xlink:href="#glyph-4-8" x="430.035156" y="162.985352"/>
<use xlink:href="#glyph-4-6" x="434.035156" y="162.985352"/>
<use xlink:href="#glyph-4-2" x="438.035156" y="162.985352"/>
<use xlink:href="#glyph-4-14" x="444.035156" y="162.985352"/>
<use xlink:href="#glyph-4-8" x="446.035156" y="162.985352"/>
<use xlink:href="#glyph-4-11" x="450.035156" y="162.985352"/>
<use xlink:href="#glyph-4-6" x="452.035156" y="162.985352"/>
<use xlink:href="#glyph-4-7" x="456.035156" y="162.985352"/>
<use xlink:href="#glyph-4-14" x="460.035156" y="162.985352"/>
<use xlink:href="#glyph-4-6" x="462.035156" y="162.985352"/>
<use xlink:href="#glyph-4-9" x="466.035156" y="162.985352"/>
<use xlink:href="#glyph-4-1" x="468.035156" y="162.985352"/>
</g>
<g fill="rgb(0%, 0%, 0%)" fill-opacity="1">
<use xlink:href="#glyph-4-15" x="414.035156" y="180.266602"/>
<use xlink:href="#glyph-4-8" x="419.035156" y="180.266602"/>
<use xlink:href="#glyph-4-9" x="423.035156" y="180.266602"/>
<use xlink:href="#glyph-4-14" x="425.035156" y="180.266602"/>
<use xlink:href="#glyph-4-16" x="427.035156" y="180.266602"/>
<use xlink:href="#glyph-4-6" x="431.035156" y="180.266602"/>
<use xlink:href="#glyph-4-2" x="435.035156" y="180.266602"/>
<use xlink:href="#glyph-4-4" x="441.035156" y="180.266602"/>
<use xlink:href="#glyph-4-8" x="445.035156" y="180.266602"/>
<use xlink:href="#glyph-4-10" x="449.035156" y="180.266602"/>
<use xlink:href="#glyph-4-9" x="453.035156" y="180.266602"/>
<use xlink:href="#glyph-4-6" x="455.035156" y="180.266602"/>
<use xlink:href="#glyph-4-9" x="459.035156" y="180.266602"/>
<use xlink:href="#glyph-4-1" x="461.035156" y="180.266602"/>
</g>
<g fill="rgb(0%, 0%, 0%)" fill-opacity="1">
<use xlink:href="#glyph-4-0" x="414.035156" y="197.543945"/>
<use xlink:href="#glyph-4-4" x="419.035156" y="197.543945"/>
<use xlink:href="#glyph-4-1" x="423.035156" y="197.543945"/>
<use xlink:href="#glyph-4-16" x="427.035156" y="197.543945"/>
<use xlink:href="#glyph-4-6" x="431.035156" y="197.543945"/>
<use xlink:href="#glyph-4-7" x="435.035156" y="197.543945"/>
<use xlink:href="#glyph-4-1" x="439.035156" y="197.543945"/>
<use xlink:href="#glyph-4-8" x="443.035156" y="197.543945"/>
<use xlink:href="#glyph-4-9" x="447.035156" y="197.543945"/>
<use xlink:href="#glyph-4-10" x="449.035156" y="197.543945"/>
<use xlink:href="#glyph-4-11" x="453.035156" y="197.543945"/>
<use xlink:href="#glyph-4-14" x="455.035156" y="197.543945"/>
<use xlink:href="#glyph-4-6" x="457.035156" y="197.543945"/>
<use xlink:href="#glyph-4-9" x="461.035156" y="197.543945"/>
<use xlink:href="#glyph-4-1" x="463.035156" y="197.543945"/>
</g>
<g fill="rgb(0%, 0%, 0%)" fill-opacity="1">
<use xlink:href="#glyph-4-17" x="414.035156" y="214.825195"/>
<use xlink:href="#glyph-4-1" x="419.035156" y="214.825195"/>
<use xlink:href="#glyph-4-8" x="423.035156" y="214.825195"/>
<use xlink:href="#glyph-4-9" x="427.035156" y="214.825195"/>
<use xlink:href="#glyph-4-10" x="429.035156" y="214.825195"/>
<use xlink:href="#glyph-4-11" x="433.035156" y="214.825195"/>
<use xlink:href="#glyph-4-6" x="435.035156" y="214.825195"/>
<use xlink:href="#glyph-4-14" x="439.035156" y="214.825195"/>
<use xlink:href="#glyph-4-18" x="441.035156" y="214.825195"/>
<use xlink:href="#glyph-4-6" x="445.035156" y="214.825195"/>
<use xlink:href="#glyph-4-9" x="449.035156" y="214.825195"/>
<use xlink:href="#glyph-4-1" x="451.035156" y="214.825195"/>
</g>
<g fill="rgb(0%, 0%, 0%)" fill-opacity="1">
<use xlink:href="#glyph-4-19" x="414.035156" y="232.106445"/>
<use xlink:href="#glyph-4-13" x="418.035156" y="232.106445"/>
<use xlink:href="#glyph-4-20" x="422.035156" y="232.106445"/>
<use xlink:href="#glyph-4-6" x="426.035156" y="232.106445"/>
<use xlink:href="#glyph-4-7" x="430.035156" y="232.106445"/>
<use xlink:href="#glyph-4-1" x="434.035156" y="232.106445"/>
<use xlink:href="#glyph-4-8" x="438.035156" y="232.106445"/>
<use xlink:href="#glyph-4-9" x="442.035156" y="232.106445"/>
<use xlink:href="#glyph-4-10" x="444.035156" y="232.106445"/>
<use xlink:href="#glyph-4-11" x="448.035156" y="232.106445"/>
<use xlink:href="#glyph-4-14" x="450.035156" y="232.106445"/>
<use xlink:href="#glyph-4-6" x="452.035156" y="232.106445"/>
<use xlink:href="#glyph-4-9" x="456.035156" y="232.106445"/>
<use xlink:href="#glyph-4-1" x="458.035156" y="232.106445"/>
</g>
<g fill="rgb(0%, 0%, 0%)" fill-opacity="1">
<use xlink:href="#glyph-4-17" x="414.035156" y="249.383789"/>
<use xlink:href="#glyph-4-1" x="419.035156" y="249.383789"/>
<use xlink:href="#glyph-4-8" x="423.035156" y="249.383789"/>
<use xlink:href="#glyph-4-14" x="427.035156" y="249.383789"/>
<use xlink:href="#glyph-4-5" x="429.035156" y="249.383789"/>
<use xlink:href="#glyph-4-5" x="431.035156" y="249.383789"/>
<use xlink:href="#glyph-4-6" x="433.035156" y="249.383789"/>
<use xlink:href="#glyph-4-9" x="437.035156" y="249.383789"/>
<use xlink:href="#glyph-4-1" x="439.035156" y="249.383789"/>
</g>
<g fill="rgb(0%, 0%, 0%)" fill-opacity="1">
<use xlink:href="#glyph-4-21" x="414.035156" y="266.665039"/>
<use xlink:href="#glyph-4-20" x="419.035156" y="266.665039"/>
<use xlink:href="#glyph-4-10" x="423.035156" y="266.665039"/>
<use xlink:href="#glyph-4-13" x="427.035156" y="266.665039"/>
<use xlink:href="#glyph-4-18" x="431.035156" y="266.665039"/>
<use xlink:href="#glyph-4-6" x="435.035156" y="266.665039"/>
<use xlink:href="#glyph-4-2" x="439.035156" y="266.665039"/>
<use xlink:href="#glyph-4-6" x="445.035156" y="266.665039"/>
<use xlink:href="#glyph-4-16" x="449.035156" y="266.665039"/>
<use xlink:href="#glyph-4-1" x="453.035156" y="266.665039"/>
<use xlink:href="#glyph-4-18" x="457.035156" y="266.665039"/>
<use xlink:href="#glyph-4-6" x="461.035156" y="266.665039"/>
<use xlink:href="#glyph-4-9" x="465.035156" y="266.665039"/>
<use xlink:href="#glyph-4-1" x="467.035156" y="266.665039"/>
</g>
<g fill="rgb(0%, 0%, 0%)" fill-opacity="1">
<use xlink:href="#glyph-5-0" x="37.757812" y="12.260742"/>
<use xlink:href="#glyph-5-1" x="44.757812" y="12.260742"/>
<use xlink:href="#glyph-5-2" x="51.757812" y="12.260742"/>
<use xlink:href="#glyph-5-3" x="57.757812" y="12.260742"/>
<use xlink:href="#glyph-5-4" x="60.757812" y="12.260742"/>
<use xlink:href="#glyph-5-5" x="67.757812" y="12.260742"/>
<use xlink:href="#glyph-5-6" x="77.757812" y="12.260742"/>
<use xlink:href="#glyph-5-5" x="80.757812" y="12.260742"/>
<use xlink:href="#glyph-5-7" x="90.757812" y="12.260742"/>
<use xlink:href="#glyph-5-8" x="96.757812" y="12.260742"/>
<use xlink:href="#glyph-5-9" x="102.757812" y="12.260742"/>
<use xlink:href="#glyph-5-6" x="109.757812" y="12.260742"/>
<use xlink:href="#glyph-5-10" x="112.757812" y="12.260742"/>
<use xlink:href="#glyph-5-11" x="118.757812" y="12.260742"/>
<use xlink:href="#glyph-5-5" x="125.757812" y="12.260742"/>
<use xlink:href="#glyph-5-12" x="135.757812" y="12.260742"/>
<use xlink:href="#glyph-5-11" x="142.757812" y="12.260742"/>
<use xlink:href="#glyph-5-13" x="149.757812" y="12.260742"/>
<use xlink:href="#glyph-5-14" x="155.757812" y="12.260742"/>
<use xlink:href="#glyph-5-15" x="158.757812" y="12.260742"/>
<use xlink:href="#glyph-5-14" x="162.757812" y="12.260742"/>
<use xlink:href="#glyph-5-11" x="165.757812" y="12.260742"/>
<use xlink:href="#glyph-5-9" x="172.757812" y="12.260742"/>
<use xlink:href="#glyph-5-16" x="179.757812" y="12.260742"/>
<use xlink:href="#glyph-5-6" x="183.757812" y="12.260742"/>
<use xlink:href="#glyph-5-17" x="186.757812" y="12.260742"/>
<use xlink:href="#glyph-5-15" x="194.757812" y="12.260742"/>
<use xlink:href="#glyph-5-18" x="198.757812" y="12.260742"/>
<use xlink:href="#glyph-5-3" x="202.757812" y="12.260742"/>
<use xlink:href="#glyph-5-19" x="205.757812" y="12.260742"/>
<use xlink:href="#glyph-5-6" x="208.757812" y="12.260742"/>
<use xlink:href="#glyph-5-20" x="211.757812" y="12.260742"/>
<use xlink:href="#glyph-5-2" x="219.757812" y="12.260742"/>
<use xlink:href="#glyph-5-21" x="225.757812" y="12.260742"/>
<use xlink:href="#glyph-5-18" x="232.757812" y="12.260742"/>
<use xlink:href="#glyph-5-11" x="236.757812" y="12.260742"/>
<use xlink:href="#glyph-5-3" x="243.757812" y="12.260742"/>
<use xlink:href="#glyph-5-2" x="246.757812" y="12.260742"/>
<use xlink:href="#glyph-5-13" x="252.757812" y="12.260742"/>
<use xlink:href="#glyph-5-8" x="258.757812" y="12.260742"/>
<use xlink:href="#glyph-5-15" x="264.757812" y="12.260742"/>
<use xlink:href="#glyph-5-7" x="268.757812" y="12.260742"/>
<use xlink:href="#glyph-5-6" x="274.757812" y="12.260742"/>
<use xlink:href="#glyph-5-8" x="277.757812" y="12.260742"/>
<use xlink:href="#glyph-5-9" x="283.757812" y="12.260742"/>
<use xlink:href="#glyph-5-21" x="290.757812" y="12.260742"/>
<use xlink:href="#glyph-5-6" x="297.757812" y="12.260742"/>
<use xlink:href="#glyph-5-22" x="300.757812" y="12.260742"/>
<use xlink:href="#glyph-5-7" x="307.757812" y="12.260742"/>
<use xlink:href="#glyph-5-7" x="313.757812" y="12.260742"/>
<use xlink:href="#glyph-5-21" x="319.757812" y="12.260742"/>
</g>
</svg>
